<svg width="280" height="40" viewBox="0 0 280 40" fill="none" xmlns="http://www.w3.org/2000/svg">
<path fill-rule="evenodd" clip-rule="evenodd" d="M184.437 23.1085V24.7574H188.414C188.351 25.5343 188.027 26.2674 187.493 26.8376C186.689 27.653 185.575 28.0921 184.428 28.0465C182.013 28.0108 180.074 26.0525 180.074 23.6492C180.074 21.2458 182.013 19.2876 184.428 19.2518C185.549 19.2338 186.631 19.6588 187.437 20.4335L188.607 19.2703C187.507 18.1615 186.002 17.5435 184.437 17.5571C182.209 17.4728 180.113 18.6073 178.975 20.5143C177.836 22.4213 177.836 24.7954 178.975 26.7023C180.113 28.6093 182.209 29.7438 184.437 29.6595C186.031 29.731 187.579 29.1127 188.681 27.9638C189.645 26.9094 190.16 25.5234 190.117 24.0984C190.12 23.751 190.089 23.4042 190.025 23.0627L184.437 23.1085ZM194.646 21.9082C192.487 21.9136 190.74 23.6592 190.744 25.8083C190.747 27.9574 192.5 29.6972 194.659 29.6954C196.819 29.6936 198.568 27.9509 198.569 25.8018C198.584 24.7613 198.173 23.7592 197.432 23.0252C196.691 22.2911 195.682 21.888 194.636 21.9082H194.646ZM199.323 25.8141C199.316 23.6661 201.058 21.9184 203.217 21.9082C204.262 21.8883 205.271 22.2915 206.012 23.0255C206.753 23.7595 207.163 24.7614 207.148 25.8018C207.148 27.9498 205.4 29.692 203.241 29.6954C201.083 29.6988 199.329 27.962 199.323 25.8141ZM200.908 26.8273C201.329 27.7029 202.244 28.2338 203.216 28.1663C203.827 28.1523 204.407 27.8933 204.823 27.4481C205.239 27.0028 205.456 26.4092 205.426 25.8019C205.423 24.8316 204.825 23.9615 203.917 23.6078C203.009 23.2541 201.976 23.4885 201.312 24.199C200.648 24.9096 200.488 25.9518 200.908 26.8273ZM192.332 26.8339C192.755 27.7089 193.673 28.2373 194.646 28.1661H194.636C195.247 28.1524 195.827 27.8935 196.243 27.4483C196.66 27.003 196.877 26.4092 196.847 25.8017C196.844 24.8307 196.244 23.9603 195.335 23.6073C194.426 23.2543 193.393 23.4906 192.73 24.203C192.067 24.9154 191.909 25.9589 192.332 26.8339ZM222.798 21.9092C224.324 21.9651 225.657 22.9525 226.149 24.3914L226.341 24.8031L221.103 26.9563C221.432 27.7004 222.184 28.169 223 28.138C223.788 28.1401 224.519 27.7297 224.924 27.0575L226.259 27.9735C225.533 29.0562 224.308 29.7034 223 29.6964C221.96 29.7117 220.959 29.3055 220.226 28.5712C219.493 27.8368 219.092 26.8375 219.115 25.8028C219.051 24.7918 219.411 23.7998 220.109 23.0622C220.806 22.3246 221.78 21.9072 222.798 21.9092ZM220.808 25.6918C220.77 25.1193 220.966 24.5558 221.351 24.1284C221.735 23.701 222.276 23.4456 222.852 23.4199C223.459 23.381 224.032 23.7051 224.307 24.2444L220.809 25.6918H220.808ZM218.278 29.4668H216.556H216.555V18.0146H218.278V29.4668ZM213.739 22.7793H213.675C213.15 22.1952 212.4 21.8616 211.613 21.8623C209.525 21.9661 207.886 23.6808 207.886 25.7608C207.886 27.8408 209.525 29.5554 211.613 29.6593C212.402 29.6721 213.157 29.3364 213.675 28.7423H213.729V29.302C213.729 30.7952 212.928 31.5925 211.64 31.5925C210.762 31.5718 209.984 31.0248 209.67 30.2083L208.17 30.8313C208.747 32.2302 210.12 33.1402 211.64 33.1314C213.656 33.1314 215.322 31.9497 215.322 29.0723V22.1378H213.739V22.7783V22.7793ZM211.766 28.1658L211.769 28.1661H211.759L211.766 28.1658ZM213.317 27.4309C212.922 27.8759 212.362 28.1412 211.766 28.1658C210.537 28.0559 209.595 27.0307 209.595 25.8021C209.595 24.5726 210.539 23.5467 211.769 23.4382C212.364 23.4688 212.921 23.7369 213.314 24.1818C213.708 24.6267 213.904 25.2108 213.858 25.8017C213.909 26.3955 213.714 26.9842 213.317 27.4309ZM234.212 18.0147H230.097V29.4668H231.819V25.1244H234.222C235.558 25.2178 236.835 24.5614 237.531 23.423C238.228 22.2846 238.228 20.8545 237.531 19.7161C236.835 18.5776 235.558 17.9212 234.222 18.0147H234.212ZM231.81 23.5113H234.212L234.249 23.5395C235.34 23.5395 236.224 22.6596 236.224 21.5742C236.224 20.4888 235.34 19.6089 234.249 19.6089H231.81V23.5113ZM244.827 21.8624C243.546 21.7863 242.342 22.4738 241.761 23.6126L243.289 24.2453C243.597 23.6807 244.212 23.3498 244.854 23.4014C245.296 23.3499 245.74 23.4772 246.086 23.7547C246.432 24.0322 246.652 24.4367 246.696 24.8771V24.9958C246.143 24.7043 245.526 24.5532 244.9 24.5558C243.253 24.5558 241.586 25.4718 241.586 27.1305C241.619 27.8448 241.941 28.5156 242.479 28.9901C243.016 29.4646 243.724 29.7025 244.44 29.6497C245.324 29.7128 246.171 29.2909 246.65 28.5497H246.705V29.4667H248.362V25.0601C248.362 23.0539 246.834 21.8897 244.873 21.8897L244.827 21.8624ZM243.272 27.1674C243.272 27.8546 244.054 28.1379 244.615 28.1379L244.661 28.1661C245.699 28.1408 246.559 27.3589 246.677 26.3332C246.2 26.068 245.659 25.9352 245.112 25.9487C244.247 25.9487 243.272 26.2504 243.272 27.1674ZM254.401 22.1379L252.431 27.1023H252.376L250.332 22.1379H248.491L251.556 29.0822L249.807 32.9388H251.602L256.316 22.1379H254.401ZM240.648 29.4668H238.927V18.0146H240.648V29.4668Z" fill="white"></path>
<path d="M150.149 8.84966C149.873 9.19664 149.741 9.64344 149.782 10.0919V28.9504C149.756 29.3861 149.893 29.8149 150.165 30.1505L150.223 30.2106L160.526 19.6498V19.4014L150.206 8.78955L150.149 8.84966Z" fill="#5BC9F4"></path>
<path d="M164.096 23.3946L160.526 20.0987V19.8674L164.096 16.5789L164.174 16.619L168.415 18.8377C169.626 19.4682 169.626 20.5053 168.415 21.1442L164.19 23.362L164.096 23.3946Z" fill="url('#paint0_linear_4449_1082')"></path>
<path d="M163.45 23.015L159.988 19.5L149.774 29.8726C150.257 30.3039 150.975 30.3244 151.481 29.9223L163.459 23.016" fill="url('#paint1_linear_4449_1082')"></path>
<path d="M163.459 15.9854L151.481 9.07763C150.973 8.67562 150.26 8.69636 149.774 9.12728L159.997 19.5001L163.459 15.9854Z" fill="url('#paint2_linear_4449_1082')"></path>
<path fill-rule="evenodd" clip-rule="evenodd" d="M179.712 13.1838H179.098V15.3597H179.896V13.8611H184.459V15.3597H185.258V13.1838H184.565V7.81592H180.528L180.529 9.01818C180.529 9.82338 180.451 10.6268 180.296 11.418C180.222 11.7821 180.136 12.117 180.037 12.4218C179.937 12.7266 179.829 12.9806 179.712 13.1838ZM183.731 8.49316V13.1837H180.625C180.734 12.957 180.824 12.7219 180.893 12.4809C180.978 12.1987 181.053 11.8902 181.121 11.5534C181.264 10.8322 181.336 10.0995 181.335 9.36523V8.49316H183.731ZM188.129 13.9541C187.767 13.9541 187.45 13.8967 187.177 13.781C186.913 13.671 186.678 13.5062 186.488 13.2984C186.298 13.0872 186.155 12.8407 186.067 12.574C185.971 12.2839 185.924 11.981 185.927 11.6765C185.927 11.3548 185.974 11.0547 186.067 10.7744C186.161 10.495 186.301 10.2532 186.488 10.0462C186.676 9.84022 186.905 9.67841 187.177 9.55988C187.45 9.44135 187.767 9.38208 188.129 9.38208C188.486 9.38208 188.802 9.44135 189.077 9.55988C189.352 9.67841 189.583 9.84022 189.77 10.0462C189.957 10.2532 190.098 10.495 190.191 10.7744C190.285 11.0547 190.332 11.3548 190.332 11.6765C190.332 11.9983 190.285 12.2974 190.191 12.574C190.098 12.8506 189.957 13.0914 189.77 13.2984C189.583 13.5044 189.352 13.6653 189.077 13.781C188.777 13.9012 188.454 13.9602 188.129 13.9541ZM188.678 13.2175C188.505 13.2909 188.322 13.3276 188.129 13.3276C187.748 13.3283 187.385 13.1731 187.129 12.9005C187 12.7612 186.9 12.59 186.826 12.384C186.753 12.177 186.716 11.9419 186.716 11.6766C186.716 11.4113 186.753 11.1761 186.827 10.9701C186.9 10.7631 187 10.59 187.129 10.4489C187.253 10.311 187.407 10.2011 187.58 10.1272C187.753 10.0537 187.94 10.0162 188.129 10.0171C188.318 10.0162 188.505 10.0537 188.678 10.1272C188.851 10.2011 189.005 10.311 189.13 10.4489C189.265 10.6014 189.368 10.7782 189.433 10.9691C189.506 11.1761 189.542 11.4113 189.542 11.6766C189.542 11.9419 189.506 12.177 189.432 12.384C189.359 12.5891 189.258 12.7612 189.13 12.8995C189.001 13.0388 188.851 13.1441 188.678 13.2175ZM193.282 13.9541C192.937 13.9541 192.632 13.9004 192.366 13.7932C192.11 13.6929 191.881 13.5363 191.699 13.336C191.516 13.1309 191.378 12.8917 191.294 12.6333C191.2 12.34 191.155 12.0343 191.159 11.7273C191.159 11.4 191.203 11.0942 191.29 10.8092C191.378 10.5232 191.511 10.2758 191.69 10.0632C191.869 9.85151 192.09 9.68594 192.356 9.56458C192.623 9.44229 192.937 9.38208 193.3 9.38208C193.557 9.38208 193.798 9.41124 194.023 9.47145C194.25 9.53072 194.447 9.62197 194.62 9.74615C194.794 9.87032 194.935 10.0265 195.046 10.2165C195.157 10.4047 195.227 10.6295 195.257 10.8891H194.484C194.426 10.6126 194.303 10.3981 194.116 10.2457C193.929 10.0933 193.677 10.0171 193.361 10.0171C193.092 10.0171 192.867 10.0651 192.686 10.161C192.51 10.2514 192.361 10.3823 192.251 10.542C192.143 10.7001 192.065 10.8816 192.019 11.0876C191.971 11.2978 191.948 11.5123 191.948 11.7273C191.948 11.9305 191.973 12.1281 192.023 12.32C192.073 12.5119 192.15 12.6822 192.256 12.8318C192.361 12.9823 192.496 13.1018 192.664 13.1921C192.83 13.2824 193.034 13.3275 193.274 13.3275C193.642 13.3275 193.93 13.2344 194.138 13.0481C194.346 12.8619 194.473 12.5994 194.52 12.2607H195.283C195.201 12.8082 194.993 13.2269 194.66 13.5185C194.327 13.8092 193.867 13.9541 193.282 13.9541ZM195.785 10.1186H197.409V13.8609H198.154V10.1186H199.778V9.48364H195.785V10.1186ZM201.035 15.605C200.947 15.605 200.859 15.5994 200.771 15.5881C200.685 15.577 200.599 15.5572 200.517 15.5288V14.8684L200.731 14.9362C200.804 14.9586 200.88 14.9701 200.956 14.97C201.087 14.976 201.216 14.9403 201.324 14.8684C201.428 14.7886 201.512 14.6873 201.57 14.5721L201.877 13.8355L200.078 9.48364H200.921L202.246 13.065H202.263L203.536 9.48364H204.325L202.351 14.4366C202.263 14.6511 202.177 14.8317 202.092 14.9785C202.017 15.1114 201.923 15.2326 201.811 15.3378C201.713 15.4282 201.597 15.4974 201.469 15.541C201.329 15.5858 201.182 15.6074 201.035 15.605ZM208.855 9.48364H205.152V13.8609H205.898V10.1186H208.109V13.8609H208.855V9.48364ZM210.173 9.48364H210.919V11.2278H213.218V9.48364H213.964V13.8609H213.218V11.8458H210.919V13.8609H210.173V9.48364ZM216.287 13.781C216.56 13.8967 216.877 13.9541 217.239 13.9541C217.564 13.9602 217.887 13.9012 218.187 13.781C218.462 13.6653 218.693 13.5044 218.88 13.2984C219.068 13.0914 219.208 12.8506 219.302 12.574C219.395 12.2974 219.442 11.9983 219.442 11.6765C219.442 11.3548 219.395 11.0547 219.302 10.7744C219.208 10.495 219.068 10.2532 218.88 10.0462C218.693 9.84022 218.462 9.67841 218.187 9.55988C217.912 9.44135 217.596 9.38208 217.239 9.38208C216.877 9.38208 216.56 9.44135 216.288 9.55988C216.015 9.67841 215.786 9.84022 215.598 10.0462C215.411 10.2532 215.271 10.495 215.177 10.7744C215.084 11.0547 215.037 11.3548 215.037 11.6765C215.034 11.981 215.082 12.2839 215.177 12.574C215.265 12.8407 215.408 13.0872 215.598 13.2984C215.788 13.5062 216.023 13.671 216.287 13.781ZM217.239 13.3276C217.432 13.3276 217.615 13.2909 217.788 13.2175C217.961 13.1441 218.111 13.0388 218.24 12.8995C218.368 12.7612 218.469 12.5891 218.542 12.384C218.616 12.177 218.652 11.9419 218.652 11.6766C218.652 11.4113 218.616 11.1761 218.543 10.9691C218.478 10.7782 218.375 10.6014 218.24 10.4489C218.116 10.311 217.961 10.2011 217.788 10.1272C217.615 10.0537 217.428 10.0162 217.239 10.0171C217.05 10.0162 216.863 10.0537 216.69 10.1272C216.517 10.2011 216.363 10.311 216.239 10.4489C216.11 10.59 216.01 10.7631 215.937 10.9701C215.863 11.1761 215.827 11.4113 215.827 11.6766C215.827 11.9419 215.863 12.177 215.936 12.384C216.01 12.59 216.11 12.7612 216.239 12.9005C216.368 13.0388 216.518 13.1441 216.69 13.2175C216.864 13.2909 217.046 13.3276 217.239 13.3276ZM225.246 9.48364H223.149V13.8609H225.615C225.804 13.8628 225.991 13.8299 226.168 13.764C226.337 13.6981 226.484 13.6097 226.606 13.4968C226.73 13.3825 226.828 13.2439 226.892 13.0904C226.959 12.9324 226.993 12.7602 226.993 12.574C226.993 12.2805 226.915 12.0406 226.76 11.8543C226.604 11.668 226.396 11.5495 226.133 11.4987V11.4902C226.343 11.3943 226.507 11.2729 226.624 11.1262C226.741 10.9794 226.799 10.7875 226.799 10.5504C226.799 10.3303 226.756 10.1497 226.668 10.0086C226.58 9.86746 226.463 9.75834 226.317 9.68308C226.171 9.60594 226.006 9.5542 225.822 9.52598C225.636 9.49775 225.445 9.48364 225.246 9.48364ZM225.474 13.2514C225.72 13.2514 225.905 13.1827 226.032 13.0444C226.16 12.8995 226.227 12.7136 226.22 12.5233C226.228 12.3443 226.154 12.171 226.018 12.0491C225.884 11.9306 225.659 11.8713 225.343 11.8713H223.886V13.2514H225.474ZM225.838 11.1093C225.713 11.2221 225.489 11.2786 225.167 11.2786H223.886V10.0933H225.167C225.495 10.0933 225.72 10.1422 225.843 10.241C225.969 10.3456 226.037 10.5006 226.027 10.6605C226.035 10.8295 225.966 10.9932 225.838 11.1093Z" fill="white"></path>
<path fill-rule="evenodd" clip-rule="evenodd" d="M19.7612 11.3926C21.0834 11.4912 22.4406 10.7206 23.2885 9.7126C24.1014 8.68898 24.6582 7.29713 24.503 5.88379C23.3263 5.93653 21.8556 6.70327 21.0078 7.70443C20.2579 8.58642 19.5885 10.032 19.7612 11.3926ZM29.4457 23.4151C29.4078 23.4014 26.2958 22.2059 26.2647 18.588C26.2378 15.5926 28.6819 14.124 28.8296 14.0353L28.8326 14.0335C27.4279 11.9707 25.25 11.6884 24.4836 11.6659C23.3642 11.5476 22.2652 11.9868 21.3673 12.3457C20.7977 12.5733 20.309 12.7686 19.9475 12.7686C19.5355 12.7686 19.0327 12.5651 18.4692 12.337C17.7324 12.0387 16.892 11.6984 16.0157 11.7167C14.025 11.748 12.1625 12.9083 11.141 14.7094C9.03391 18.3829 10.6055 23.7823 12.6252 26.7516C13.6351 28.206 14.8157 29.8293 16.3601 29.7727C17.061 29.7437 17.5582 29.533 18.0719 29.3154C18.6659 29.0637 19.2818 28.8028 20.2598 28.8028C21.1825 28.8028 21.7725 29.0556 22.3384 29.2981C22.881 29.5306 23.4016 29.7537 24.1722 29.7355C25.7952 29.7101 26.8167 28.2753 27.7907 26.8073C28.9587 25.141 29.4263 23.4991 29.4457 23.4151Z" fill="white"></path>
<path fill-rule="evenodd" clip-rule="evenodd" d="M74.2679 28.7091C74.9014 28.1348 75.2167 27.3905 75.2167 26.4763C75.2167 25.733 75.0003 25.1108 74.5677 24.6126C74.134 24.1135 73.4589 23.6769 72.5402 23.3058C71.7893 23.0069 71.2713 22.7305 70.9871 22.4755C70.6592 22.1991 70.4972 21.8475 70.4972 21.4226C70.4972 21.0388 70.6398 20.7155 70.924 20.4488C71.2616 20.1519 71.7321 20.0025 72.3335 20.0025C73.0951 20.0025 73.7761 20.1675 74.3775 20.4967L74.8044 19.0931C74.1602 18.7522 73.3531 18.5823 72.3811 18.5823C71.2917 18.5823 70.4205 18.8646 69.7667 19.4291C69.1119 19.9927 68.784 20.7174 68.784 21.6014C68.784 22.9541 69.7182 23.9827 71.5875 24.6839C72.2753 24.9399 72.7662 25.2172 73.0611 25.5161C73.357 25.814 73.5044 26.1813 73.5044 26.6179C73.5044 27.1072 73.326 27.4999 72.967 27.7919C72.6061 28.0849 72.1056 28.2315 71.4614 28.2315C70.5895 28.2386 69.7328 28.0008 68.9877 27.5448L68.5919 28.9806C69.2884 29.428 70.21 29.6507 71.3586 29.6507C72.6032 29.6507 73.5724 29.3371 74.2679 28.7091ZM47.6175 29.4914H45.7956L44.7964 26.3336H41.3274L40.3767 29.4914H38.6024L42.0404 18.7395H44.163L47.6175 29.4914ZM44.4967 25.0082L43.5945 22.201C43.4975 21.9139 43.319 21.239 43.0551 20.1753H43.0231C42.9183 20.6324 42.7486 21.3083 42.5158 22.201L41.6291 25.0082H44.4967ZM55.3967 28.6455C56.1039 27.8808 56.4579 26.8386 56.4579 25.52C56.4579 24.3391 56.1543 23.3868 55.5461 22.664C54.9397 21.9412 54.1811 21.5798 53.2731 21.5798C52.111 21.5798 51.2456 22.0418 50.6752 22.9678H50.6432L50.5472 21.739H49.0425C49.0843 22.6113 49.1066 23.461 49.1066 24.2913V32.6502H50.8168V28.5664H50.8489C51.2932 29.3 52.0217 29.6662 53.0354 29.6662C53.9755 29.6662 54.7622 29.3263 55.3967 28.6455ZM54.7156 25.5825C54.7156 24.8285 54.5469 24.2053 54.2083 23.7169C53.8377 23.2061 53.341 22.9502 52.7192 22.9502C52.2962 22.9502 51.914 23.0928 51.5706 23.3731C51.2272 23.6564 51.0021 24.0246 50.8974 24.4827C50.8504 24.6538 50.8237 24.8298 50.8178 25.0072V26.3004C50.8178 26.864 50.9895 27.3396 51.3329 27.7284C51.6763 28.1171 52.1226 28.3105 52.6717 28.3105C53.3158 28.3105 53.8164 28.0605 54.1753 27.5614C54.5352 27.0613 54.7156 26.402 54.7156 25.5825ZM64.2517 28.6455C64.9608 27.8808 65.3139 26.8386 65.3139 25.52C65.3139 24.3391 65.0103 23.3868 64.404 22.664C63.7957 21.9412 63.0381 21.5798 62.1301 21.5798C60.9679 21.5798 60.1016 22.0418 59.5322 22.9678H59.5002L59.4041 21.739H57.9005C57.9422 22.6113 57.9635 23.461 57.9635 24.2913V32.6502H59.6738V28.5664H59.7058C60.1492 29.3 60.8777 29.6662 61.8924 29.6662C62.8315 29.6662 63.6192 29.3263 64.2517 28.6455ZM63.5717 25.5825C63.5717 24.8285 63.4019 24.2053 63.0633 23.7169C62.6937 23.2061 62.199 22.9502 61.5752 22.9502C61.1523 22.9502 60.77 23.0928 60.4257 23.3731C60.0822 23.6564 59.8591 24.0246 59.7534 24.4827C59.7068 24.6539 59.6802 24.8299 59.6738 25.0072V26.3004C59.6738 26.864 59.8455 27.3396 60.188 27.7284C60.5314 28.1162 60.9776 28.3105 61.5277 28.3105C62.1718 28.3105 62.6734 28.0605 63.0323 27.5614C63.3912 27.0613 63.5717 26.402 63.5717 25.5825ZM80.8723 23.0313H78.9864V26.7957C78.9864 27.7529 79.3192 28.2315 79.9856 28.2315C80.2912 28.2315 80.5444 28.2041 80.7452 28.1514L80.7928 29.4592C80.4552 29.5862 80.0118 29.6497 79.4618 29.6497C78.7866 29.6497 78.2589 29.4426 77.8776 29.0275C77.4973 28.6124 77.3062 27.916 77.3062 26.9373V23.0304H76.1829V21.7362H77.3062V20.317L78.9864 19.8062V21.7362H80.8723V23.0304V23.0313ZM88.3663 28.4863C89.0415 27.7216 89.381 26.7429 89.381 25.5512C89.381 24.3919 89.0531 23.4454 88.3973 22.7128C87.7105 21.9578 86.8015 21.5798 85.6723 21.5798C84.4995 21.5798 83.5672 21.9627 82.8765 22.7295C82.1839 23.4942 81.8385 24.4778 81.8385 25.6792C81.8385 26.8278 82.1742 27.7802 82.8445 28.5352C83.5158 29.2892 84.4151 29.6662 85.5453 29.6662C86.7171 29.6662 87.6581 29.2736 88.3663 28.4863ZM87.6057 25.6069C87.6057 24.892 87.4544 24.2786 87.1469 23.7677C86.788 23.1485 86.2757 22.8398 85.6112 22.8398C84.9225 22.8398 84.4006 23.1495 84.0426 23.7677C83.7351 24.2796 83.5828 24.9027 83.5828 25.6392C83.5828 26.3541 83.7351 26.9675 84.0426 27.4784C84.4112 28.0966 84.9293 28.4063 85.5957 28.4063C86.2486 28.4063 86.7618 28.0908 87.1314 27.4618C87.4467 26.9412 87.6057 26.3209 87.6057 25.6069ZM94.9406 23.2528L94.9416 23.253H94.9406V23.2528ZM94.9406 23.2528C94.7629 23.2208 94.5827 23.2052 94.4022 23.2061C93.8008 23.2061 93.3351 23.4347 93.0072 23.8927C92.723 24.2961 92.5804 24.807 92.5804 25.4233V29.4914H90.8701L90.8856 24.1799C90.8856 23.2862 90.8643 22.4726 90.8216 21.739H92.3117L92.3747 23.2227H92.4222C92.6027 22.7128 92.8879 22.3026 93.2769 21.9949C93.634 21.7259 94.0678 21.5803 94.5138 21.5798C94.6719 21.5798 94.8145 21.5906 94.9406 21.6111V23.2528ZM102.593 25.2485C102.593 25.5571 102.573 25.8169 102.53 26.0298H97.3979C97.4173 26.7956 97.6656 27.3807 98.1419 27.785C98.5746 28.1464 99.1344 28.3271 99.8202 28.3271C100.581 28.3271 101.274 28.205 101.898 27.9609L102.166 29.1564C101.437 29.4758 100.577 29.635 99.5845 29.635C98.3903 29.635 97.4532 29.2814 96.7712 28.5742C96.0902 27.8671 95.7497 26.9177 95.7497 25.7271C95.7497 24.5579 96.0669 23.5851 96.7004 22.8086C97.3659 21.9793 98.2632 21.5652 99.3934 21.5652C100.503 21.5652 101.343 21.9793 101.914 22.8086C102.366 23.4669 102.593 24.2815 102.593 25.2485ZM100.629 23.4777C100.861 23.8498 100.973 24.2913 100.961 24.8011V24.8002H97.3979C97.4503 24.2805 97.6191 23.8332 97.9043 23.4611C98.2516 22.9932 98.7065 22.7588 99.2653 22.7588C99.8784 22.7588 100.333 22.9991 100.629 23.4777Z" fill="white"></path>
<path fill-rule="evenodd" clip-rule="evenodd" d="M42.1423 14.8149C41.7697 14.8149 41.4263 14.7709 41.112 14.683C40.8157 14.6043 40.538 14.4668 40.2952 14.2787C40.0649 14.0962 39.881 13.8612 39.7587 13.593C39.6307 13.3176 39.5667 12.9894 39.5667 12.6084H40.3612C40.367 12.8897 40.4203 13.1281 40.5222 13.3244C40.625 13.5217 40.7579 13.6789 40.9248 13.7991C41.0897 13.9202 41.2837 14.0062 41.5049 14.0589C41.7261 14.1116 41.9618 14.138 42.2121 14.138C42.4275 14.138 42.6283 14.1077 42.8145 14.0452C42.9913 13.989 43.1559 13.8995 43.2996 13.7815C43.5829 13.5478 43.745 13.1969 43.74 12.8282C43.74 12.5997 43.6963 12.4141 43.609 12.2705C43.5255 12.1305 43.4067 12.0153 43.2647 11.9364C43.1093 11.8529 42.9405 11.7977 42.766 11.7733C42.5769 11.744 42.378 11.7294 42.1684 11.7294C42.0811 11.7294 41.9822 11.7313 41.8716 11.7343C41.7842 11.7358 41.6968 11.7401 41.6097 11.747V11.0613C41.6795 11.073 41.7726 11.0789 41.8891 11.0789H42.1684C42.3663 11.0789 42.5478 11.0593 42.7146 11.0212C42.8795 10.9832 43.0221 10.9206 43.1414 10.8327C43.2625 10.7427 43.3587 10.623 43.4208 10.485C43.4887 10.3414 43.5217 10.1646 43.5217 9.95367C43.5278 9.78574 43.4904 9.61911 43.4131 9.47019C43.3418 9.34254 43.2397 9.23504 43.1162 9.15763C42.9846 9.07607 42.8398 9.01823 42.6884 8.9867C42.5233 8.95099 42.3548 8.9333 42.1859 8.93396C41.7261 8.93396 41.3652 9.03456 41.1033 9.23675C40.8414 9.43991 40.6871 9.76907 40.6405 10.2262H39.846C39.8577 9.89214 39.9256 9.60107 40.0517 9.35103C40.1768 9.10196 40.3437 8.89782 40.5532 8.73568C40.7628 8.57452 41.0092 8.45341 41.2905 8.37136C41.5738 8.28931 41.8803 8.24829 42.2121 8.24829C42.5089 8.24829 42.7864 8.2815 43.0464 8.34889C43.3054 8.41727 43.5305 8.5208 43.7225 8.66145C43.9146 8.8021 44.0659 8.97889 44.1765 9.19377C44.2871 9.40768 44.3424 9.66065 44.3424 9.95367C44.3424 10.1236 44.3133 10.2819 44.2551 10.4284C44.1969 10.5749 44.1193 10.7067 44.0242 10.8239C43.8378 11.0524 43.5909 11.2231 43.3122 11.3162V11.3426C43.5033 11.3786 43.6865 11.4484 43.8535 11.5487C44.1527 11.7277 44.3763 12.0109 44.4821 12.3447C44.5345 12.5088 44.5607 12.6758 44.5607 12.8458C44.545 13.3266 44.3463 13.7829 44.0058 14.1204C43.7902 14.3333 43.5355 14.5019 43.2559 14.6166C42.9494 14.7494 42.5788 14.8149 42.1423 14.8149ZM46.9549 14.7711C46.7609 14.7721 46.5675 14.7498 46.3787 14.7047C46.207 14.6647 46.0453 14.5899 45.9033 14.4849C45.7653 14.3816 45.6542 14.2462 45.5793 14.0903C45.4962 13.9069 45.456 13.7068 45.4619 13.5053C45.4619 13.2474 45.5056 13.0364 45.5929 12.8723C45.6802 12.7082 45.7947 12.5754 45.9373 12.4719C46.0809 12.3693 46.2429 12.2922 46.4272 12.2394C46.6105 12.1867 46.7978 12.1427 46.9898 12.1075C47.1936 12.0665 47.3876 12.0362 47.5709 12.0148C47.7543 11.9952 47.9153 11.9659 48.055 11.9269C48.1769 11.8982 48.2905 11.8413 48.3868 11.7608C48.4683 11.6866 48.509 11.5801 48.509 11.4395C48.5152 11.3016 48.4833 11.1646 48.4168 11.0439C48.36 10.9482 48.279 10.8694 48.1821 10.8153C48.0812 10.761 47.9715 10.7252 47.8581 10.7098C47.7412 10.6924 47.6231 10.6836 47.505 10.6835C47.1906 10.6835 46.9287 10.743 46.7192 10.8632C46.5096 10.9843 46.3961 11.2109 46.3787 11.5449H45.6366C45.6482 11.2636 45.7064 11.0263 45.8112 10.8329C45.9159 10.6395 46.0556 10.4832 46.2302 10.3621C46.4049 10.242 46.6037 10.156 46.8288 10.1033C47.0519 10.0505 47.2925 10.0242 47.5486 10.0242C47.7523 10.0242 47.9541 10.0388 48.1559 10.0681C48.3567 10.0974 48.5381 10.157 48.7011 10.2478C48.8641 10.3397 48.995 10.4666 49.094 10.6307C49.1929 10.7948 49.2424 11.0087 49.2424 11.2724V13.6107C49.2424 13.7866 49.2521 13.9155 49.2734 13.9975C49.2928 14.0796 49.3617 14.1206 49.4781 14.1206C49.5554 14.1161 49.6317 14.1013 49.7051 14.0766V14.6568C49.5771 14.733 49.3995 14.7711 49.1725 14.7711C49.0045 14.7796 48.84 14.721 48.7147 14.608C48.6002 14.5006 48.5439 14.3228 48.5439 14.0766C48.355 14.3115 48.11 14.4943 47.8319 14.608C47.5612 14.7174 47.2692 14.7711 46.9549 14.7711ZM47.7494 14.0189C47.5748 14.0872 47.3653 14.1204 47.1208 14.1204C47.0044 14.1204 46.8938 14.1087 46.789 14.0853C46.6913 14.0647 46.5982 14.0259 46.5145 13.971C46.4356 13.918 46.3699 13.8475 46.3224 13.7649C46.272 13.679 46.2477 13.5754 46.2477 13.4523C46.2477 13.2648 46.2894 13.1173 46.3738 13.0079C46.4604 12.8981 46.5732 12.812 46.7017 12.7579C46.8468 12.6962 46.9995 12.6548 47.1557 12.6348L47.6582 12.5645C47.8231 12.5411 47.9822 12.5147 48.1336 12.4854C48.2669 12.464 48.3929 12.4096 48.5003 12.3271V13.0919C48.4976 13.2088 48.4708 13.3239 48.4217 13.4299C48.3643 13.5575 48.281 13.6716 48.1772 13.7649C48.0666 13.8675 47.924 13.9515 47.7494 14.0189ZM50.6063 10.1296H53.697V10.7889H51.3484V14.6744H50.6063V10.1296ZM55.2531 10.1297H54.511V16.4062H55.2531V14.0679H55.2706C55.3485 14.199 55.4506 14.3141 55.5713 14.4068C55.6876 14.4957 55.8156 14.568 55.9516 14.6217C56.1995 14.7184 56.4628 14.769 56.7286 14.7711C57.0396 14.7778 57.3481 14.7148 57.6318 14.5865C57.8827 14.4697 58.1037 14.2966 58.2779 14.0806C58.4537 13.8594 58.5846 13.6055 58.663 13.3334C58.7474 13.0501 58.7891 12.7434 58.7891 12.4152C58.7891 12.0929 58.7454 11.7882 58.6581 11.501C58.5708 11.2138 58.4418 10.9609 58.2691 10.7411C58.0984 10.5204 57.883 10.3465 57.623 10.2176C57.364 10.0886 57.0604 10.0242 56.7112 10.0242C56.3969 10.0242 56.1087 10.0808 55.8468 10.1951C55.5849 10.3104 55.3928 10.493 55.2706 10.745H55.2531V10.1297ZM56.65 14.1206C56.9003 14.1206 57.1128 14.0708 57.2874 13.9712C57.462 13.8716 57.6017 13.7397 57.7065 13.5756C57.8112 13.4115 57.8869 13.224 57.9335 13.013C57.9803 12.7994 58.0037 12.5813 58.0033 12.3625C58.0033 12.1532 57.9753 11.9449 57.9199 11.7432C57.8688 11.5491 57.7833 11.3658 57.6677 11.2021C57.5536 11.0434 57.4041 10.9139 57.2311 10.8241C57.0374 10.7266 56.8229 10.6783 56.6064 10.6835C56.3561 10.6835 56.1436 10.7333 55.969 10.8329C55.7944 10.9326 55.6518 11.0625 55.5412 11.2236C55.4283 11.3905 55.3471 11.5769 55.3016 11.7735C55.2001 12.1908 55.2014 12.6267 55.3055 13.0433C55.3579 13.2523 55.4413 13.435 55.5538 13.5932C55.6683 13.7514 55.8148 13.8784 55.9952 13.9751C56.1757 14.0728 56.3939 14.1206 56.65 14.1206ZM60.057 16.4677C60.1443 16.4794 60.2316 16.4853 60.3189 16.4853C60.4655 16.4876 60.6114 16.4652 60.7506 16.4188C60.878 16.3738 60.9945 16.3019 61.0921 16.2079C61.2032 16.0985 61.2971 15.9727 61.3705 15.8348C61.4559 15.6824 61.5412 15.4949 61.6285 15.2722L63.593 10.1296H62.8072L61.5412 13.8481H61.5238L60.2054 10.1296H59.3672L61.1571 14.648L60.8515 15.4128C60.7938 15.5325 60.7103 15.6376 60.607 15.7205C60.4996 15.7952 60.3707 15.8322 60.2403 15.826C60.1646 15.826 60.0893 15.8142 60.0172 15.7908L59.8038 15.7205V16.4061C59.8858 16.4356 59.9707 16.4562 60.057 16.4677ZM66.0745 14.7711C65.475 14.7711 65.0064 14.6363 64.6688 14.3667C64.3312 14.0972 64.1479 13.7133 64.1188 13.2152H64.8696C64.8929 13.5492 65.0151 13.7895 65.2363 13.936C65.4575 14.0825 65.734 14.1558 66.0658 14.1558C66.4208 14.1558 66.6944 14.0796 66.8865 13.9272C67.07 13.7921 67.1773 13.5759 67.1746 13.347C67.1746 13.1185 67.1018 12.9397 66.9563 12.8108C66.8108 12.6819 66.5634 12.6174 66.2142 12.6174H65.6117V12.0109H66.0919C66.3539 12.0109 66.578 11.9571 66.7642 11.8487C66.9505 11.7393 67.0436 11.5508 67.0436 11.2812C67.0436 11.1113 66.9641 10.9618 66.803 10.8329C66.643 10.704 66.4063 10.6395 66.0919 10.6395C65.9581 10.6395 65.8261 10.6542 65.6942 10.6835C65.5632 10.7128 65.4459 10.7597 65.3411 10.8241C65.2362 10.8887 65.1468 10.9757 65.0792 11.079C65.0055 11.1956 64.9606 11.3282 64.9482 11.4658H64.1974C64.2148 11.1845 64.2817 10.9521 64.3982 10.7665C64.5146 10.5819 64.6601 10.4364 64.8347 10.327C65.0093 10.2195 65.2072 10.1414 65.4284 10.0945C65.6496 10.0476 65.8737 10.0242 66.1007 10.0242C66.3335 10.0242 66.5518 10.0476 66.7555 10.0945C66.9592 10.1414 67.1377 10.2156 67.292 10.3191C67.4472 10.4217 67.5684 10.5487 67.6596 10.701C67.7498 10.8534 67.7945 11.0351 67.7945 11.2461C67.7945 11.5098 67.7207 11.7237 67.5713 11.8878C67.4406 12.0411 67.2651 12.1488 67.0698 12.1955V12.213C67.1746 12.2306 67.2793 12.2658 67.3841 12.3185C67.4898 12.3719 67.5846 12.4448 67.6635 12.5334C67.745 12.6252 67.8119 12.7356 67.8643 12.8674C67.9167 13.0003 67.9429 13.1536 67.9429 13.3294C67.9539 13.7694 67.7352 14.183 67.3666 14.4195C67.192 14.5367 66.9932 14.6246 66.7691 14.6832C66.544 14.7418 66.3131 14.7711 66.0745 14.7711ZM69.7696 10.1296H69.0275V14.6744H69.9791L72.1095 10.9647V14.6744H72.8516V10.1296H71.8999L69.7696 13.8393V10.1296ZM75.2545 10.7889H73.6393V10.1296H77.6118V10.7889H75.9966V14.6744H75.2545V10.7889ZM79.3726 14.5951C79.6442 14.7123 79.9595 14.7709 80.3203 14.7709C80.8326 14.7709 81.2575 14.643 81.595 14.389C81.9326 14.1331 82.1509 13.7483 82.2499 13.2326H81.5165C81.4524 13.5314 81.3205 13.7541 81.1187 13.9007C80.9189 14.0472 80.6608 14.1204 80.3465 14.1204C80.1021 14.1204 79.8896 14.0794 79.7092 13.9973C79.5287 13.9153 79.3803 13.8059 79.2639 13.6672C79.1475 13.5295 79.0631 13.3722 79.0107 13.1925C78.9583 13.0138 78.935 12.8253 78.9409 12.626H82.3197C82.3313 12.3506 82.3071 12.0605 82.246 11.7557C82.1849 11.451 82.0743 11.1697 81.9132 10.9118C81.7532 10.654 81.5417 10.442 81.2759 10.274C81.011 10.107 80.6783 10.024 80.2767 10.024C79.6968 10.0139 79.1411 10.2576 78.7536 10.6921C78.5645 10.903 78.417 11.1531 78.3122 11.4442C78.2075 11.7343 78.1551 12.0488 78.1551 12.3887C78.1551 12.7344 78.1997 13.0538 78.2909 13.3468C78.3726 13.6244 78.5107 13.8818 78.6964 14.1028C78.8812 14.3171 79.1126 14.4855 79.3726 14.5951ZM81.5339 11.9669C81.5232 11.7944 81.4835 11.6249 81.4165 11.4658C81.353 11.3133 81.2608 11.1747 81.1449 11.0575C80.9033 10.8144 80.5746 10.6796 80.233 10.6834C80.0409 10.6834 79.8683 10.7166 79.714 10.785C79.5642 10.849 79.4289 10.9431 79.3163 11.0614C79.2057 11.1786 79.1184 11.3154 79.0544 11.4697C78.9896 11.628 78.9513 11.796 78.9409 11.9669H81.5339ZM87.9899 10.1296H85.9032V14.6744H88.3566C88.5446 14.6764 88.7313 14.6422 88.9066 14.5738C89.0754 14.5054 89.221 14.4136 89.3432 14.2964C89.4663 14.1776 89.5629 14.0337 89.6264 13.8744C89.6944 13.7104 89.7273 13.5316 89.7273 13.3382C89.7273 13.0335 89.6507 12.7844 89.4965 12.591C89.3412 12.3976 89.1336 12.2746 88.8717 12.2218V12.213C89.0813 12.1134 89.2442 11.9874 89.3606 11.835C89.4771 11.6826 89.5353 11.4834 89.5353 11.2373C89.5353 11.0087 89.4916 10.8212 89.4043 10.6747C89.317 10.5281 89.2006 10.4148 89.0551 10.3367C88.9095 10.2566 88.7456 10.2029 88.5623 10.1736C88.3779 10.1443 88.1878 10.1296 87.9899 10.1296ZM88.2169 14.0413C88.4614 14.0413 88.6457 13.97 88.7718 13.8264C88.8993 13.676 88.9661 13.4829 88.959 13.2853C88.9669 13.0995 88.8935 12.9196 88.7582 12.793C88.6244 12.6699 88.4003 12.6084 88.0859 12.6084H86.6366V14.0413H88.2169ZM88.5788 11.8173C88.4546 11.9345 88.2315 11.9931 87.9113 11.9931H86.6366V10.7625H87.9113C88.2373 10.7625 88.4614 10.8132 88.5836 10.9158C88.7086 11.0245 88.7764 11.1854 88.767 11.3514C88.7743 11.5269 88.7056 11.6968 88.5788 11.8173Z" fill="white"></path>
<defs>
<linearGradient id="paint0_linear_4449_1082" x1="167.63" y1="11.8922" x2="146.735" y2="11.8922" gradientUnits="userSpaceOnUse">
<stop stop-color="#FEE000"></stop>
<stop offset="0.42" stop-color="#FBBC0E"></stop>
<stop offset="0.78" stop-color="#FAA418"></stop>
<stop offset="1" stop-color="#F99B1C"></stop>
</linearGradient>
<linearGradient id="paint1_linear_4449_1082" x1="147.373" y1="17.1894" x2="140.317" y2="37.4326" gradientUnits="userSpaceOnUse">
<stop stop-color="#EF4547"></stop>
<stop offset="1" stop-color="#C6186D"></stop>
</linearGradient>
<linearGradient id="paint2_linear_4449_1082" x1="138.769" y1="2.011" x2="144.536" y2="18.5356" gradientUnits="userSpaceOnUse">
<stop stop-color="#279E6F"></stop>
<stop offset="0.04" stop-color="#2BA06F"></stop>
<stop offset="0.46" stop-color="#53B26C"></stop>
<stop offset="0.8" stop-color="#6BBD6A"></stop>
<stop offset="1" stop-color="#74C169"></stop>
</linearGradient>
</defs>
</svg>
