<svg width="280" height="40" fill="none" xmlns="http://www.w3.org/2000/svg"><path fill-rule="evenodd" clip-rule="evenodd" d="M184.437 23.108v1.65h3.977a3.45 3.45 0 0 1-.921 2.08 4.078 4.078 0 0 1-3.065 1.209c-2.415-.036-4.354-1.995-4.354-4.398 0-2.403 1.939-4.361 4.354-4.397a4.244 4.244 0 0 1 3.009 1.181l1.17-1.163a5.804 5.804 0 0 0-4.17-1.713 6.09 6.09 0 0 0-5.462 2.957 6.03 6.03 0 0 0 0 6.188 6.09 6.09 0 0 0 5.462 2.957 5.538 5.538 0 0 0 4.244-1.695 5.483 5.483 0 0 0 1.436-3.866 5.37 5.37 0 0 0-.092-1.035l-5.588.046Zm10.209-1.2c-2.159.006-3.906 1.751-3.902 3.9.003 2.15 1.756 3.89 3.915 3.887a3.904 3.904 0 0 0 3.91-3.893 3.831 3.831 0 0 0-1.137-2.777 3.867 3.867 0 0 0-2.796-1.117h.01Zm4.677 3.906c-.007-2.148 1.735-3.896 3.894-3.906a3.868 3.868 0 0 1 2.795 1.117 3.83 3.83 0 0 1 1.136 2.777c0 2.148-1.748 3.89-3.907 3.893-2.158.004-3.912-1.733-3.918-3.88Zm1.585 1.013a2.378 2.378 0 0 0 2.308 1.34 2.271 2.271 0 0 0 1.607-.719 2.248 2.248 0 0 0 .603-1.646 2.364 2.364 0 0 0-1.509-2.194 2.383 2.383 0 0 0-2.605.591 2.355 2.355 0 0 0-.404 2.628Zm-8.576.007a2.377 2.377 0 0 0 2.314 1.332h-.01a2.27 2.27 0 0 0 1.607-.718c.417-.445.634-1.039.604-1.646a2.364 2.364 0 0 0-1.512-2.195 2.382 2.382 0 0 0-2.605.596 2.355 2.355 0 0 0-.398 2.63Zm30.466-4.925a3.68 3.68 0 0 1 3.351 2.482l.192.412-5.238 2.153A1.99 1.99 0 0 0 223 28.138a2.238 2.238 0 0 0 1.924-1.08l1.335.916A3.898 3.898 0 0 1 223 29.696a3.84 3.84 0 0 1-2.774-1.125 3.799 3.799 0 0 1-1.111-2.768 3.651 3.651 0 0 1 .994-2.74 3.69 3.69 0 0 1 2.689-1.154Zm-1.99 3.783a2.126 2.126 0 0 1 .543-1.564 2.146 2.146 0 0 1 1.501-.708 1.523 1.523 0 0 1 1.455.824l-3.498 1.448h-.001Zm-2.53 3.775H216.555V18.015h1.723v11.452Zm-4.539-6.688h-.064a2.77 2.77 0 0 0-2.062-.917 3.912 3.912 0 0 0-3.727 3.899 3.912 3.912 0 0 0 3.727 3.898 2.679 2.679 0 0 0 2.062-.917h.054v.56c0 1.493-.801 2.29-2.089 2.29a2.164 2.164 0 0 1-1.97-1.384l-1.5.623a3.727 3.727 0 0 0 3.47 2.3c2.016 0 3.682-1.181 3.682-4.059v-6.934h-1.583v.641Zm-1.973 5.387h.003-.01.007Zm1.551-.735c-.395.445-.955.71-1.551.735a2.378 2.378 0 0 1-2.171-2.364c0-1.23.944-2.255 2.174-2.364.595.03 1.152.299 1.545.744.394.445.59 1.029.544 1.62a2.172 2.172 0 0 1-.541 1.629Zm20.895-9.416h-4.115v11.452h1.722v-4.343h2.403a3.585 3.585 0 0 0 3.309-1.701 3.547 3.547 0 0 0 0-3.707 3.584 3.584 0 0 0-3.309-1.701h-.01Zm-2.402 5.496h2.402l.037.029a1.97 1.97 0 0 0 1.975-1.966 1.97 1.97 0 0 0-1.975-1.965h-2.439v3.902Zm13.017-1.649a3.226 3.226 0 0 0-3.066 1.75l1.528.633a1.635 1.635 0 0 1 1.565-.844c.442-.051.886.076 1.232.354.346.277.566.682.61 1.122v.119a3.818 3.818 0 0 0-1.796-.44c-1.647 0-3.314.916-3.314 2.575.033.714.355 1.385.893 1.86a2.667 2.667 0 0 0 1.961.659 2.425 2.425 0 0 0 2.21-1.1h.055v.917h1.657V25.06c0-2.006-1.528-3.17-3.489-3.17l-.046-.028Zm-1.555 5.305c0 .688.782.97 1.343.97l.046.03a2.076 2.076 0 0 0 2.016-1.834 3.067 3.067 0 0 0-1.565-.384c-.865 0-1.84.301-1.84 1.218Zm11.129-5.03-1.97 4.965h-.055l-2.044-4.964h-1.841l3.065 6.944-1.749 3.857h1.795l4.714-10.801h-1.915Zm-13.753 7.33h-1.721V18.015h1.721v11.452Z" fill="#fff"/><path d="M150.149 8.85a1.743 1.743 0 0 0-.367 1.242V28.95c-.026.436.111.865.383 1.2l.058.06 10.303-10.56V19.4L150.206 8.79l-.057.06Z" fill="#5BC9F4"/><path d="m164.096 23.395-3.57-3.296v-.232l3.57-3.288.078.04 4.241 2.219c1.211.63 1.211 1.667 0 2.306l-4.225 2.218-.094.033Z" fill="url('#paint0_linear_4449_1082')"/><path d="m163.45 23.015-3.462-3.515-10.214 10.373a1.322 1.322 0 0 0 1.707.05l11.978-6.907" fill="url('#paint1_linear_4449_1082')"/><path d="m163.459 15.985-11.978-6.907a1.323 1.323 0 0 0-1.707.05L159.997 19.5l3.462-3.515Z" fill="url('#paint2_linear_4449_1082')"/><path fill-rule="evenodd" clip-rule="evenodd" d="M179.712 13.184h-.614v2.176h.798V13.86h4.563v1.499h.799v-2.176h-.693V7.816h-4.037l.001 1.202c0 .805-.078 1.609-.233 2.4-.074.364-.16.699-.259 1.004-.1.305-.208.559-.325.762Zm4.019-4.69v4.69h-3.106c.109-.227.199-.462.268-.703a11.171 11.171 0 0 0 .442-3.116v-.872h2.396Zm4.398 5.46c-.362 0-.679-.057-.952-.173a1.948 1.948 0 0 1-1.11-1.207 2.768 2.768 0 0 1-.14-.897c0-.322.047-.622.14-.903.094-.279.234-.52.421-.728a2 2 0 0 1 .689-.486c.273-.119.59-.178.952-.178.357 0 .673.06.948.178.275.118.506.28.693.486.187.207.328.449.421.728.094.28.141.58.141.903 0 .321-.047.62-.141.897a1.934 1.934 0 0 1-1.114 1.207c-.3.12-.623.18-.948.173Zm.549-.737c-.173.074-.356.11-.549.11-.381.001-.744-.154-1-.427a1.485 1.485 0 0 1-.303-.516 2.117 2.117 0 0 1-.11-.707c0-.266.037-.5.111-.707.073-.207.173-.38.302-.521.124-.138.278-.248.451-.322.173-.073.36-.11.549-.11.189 0 .376.037.549.11.173.074.327.184.452.322.135.152.238.33.303.52.073.207.109.442.109.708 0 .265-.036.5-.11.707a1.478 1.478 0 0 1-.302.515 1.3 1.3 0 0 1-.452.319Zm4.604.737c-.345 0-.65-.054-.916-.16a1.777 1.777 0 0 1-.667-.458 1.972 1.972 0 0 1-.405-.703 2.845 2.845 0 0 1-.135-.906c0-.327.044-.633.131-.918a2.1 2.1 0 0 1 .4-.746c.179-.211.4-.377.666-.498.267-.123.581-.183.944-.183.257 0 .498.03.723.09.227.059.424.15.597.274.174.124.315.28.426.47.111.189.181.414.211.673h-.773a1.086 1.086 0 0 0-.368-.643c-.187-.153-.439-.229-.755-.229a1.43 1.43 0 0 0-.675.144c-.176.09-.325.221-.435.381-.108.158-.186.34-.232.546-.048.21-.071.424-.071.64 0 .203.025.4.075.592.05.192.127.362.233.512.105.15.24.27.408.36.166.09.37.136.61.136.368 0 .656-.094.864-.28.208-.186.335-.449.382-.787h.763c-.082.547-.29.966-.623 1.258-.333.29-.793.435-1.378.435Zm2.503-3.835h1.624v3.742h.745v-3.742h1.624v-.635h-3.993v.635Zm5.25 5.486a2.07 2.07 0 0 1-.264-.017 1.28 1.28 0 0 1-.254-.06v-.66l.214.068a.765.765 0 0 0 .225.034c.131.006.26-.03.368-.102a.863.863 0 0 0 .246-.296l.307-.736-1.799-4.352h.843l1.325 3.581h.017l1.273-3.581h.789l-1.974 4.953a4.517 4.517 0 0 1-.259.542 1.51 1.51 0 0 1-.281.359.96.96 0 0 1-.342.203c-.14.045-.287.066-.434.064Zm7.82-6.121h-3.703v4.377h.746v-3.742h2.211v3.742h.746V9.484Zm1.318 0h.746v1.744h2.299V9.484h.746v4.377h-.746v-2.015h-2.299v2.015h-.746V9.484Zm6.114 4.297c.273.116.59.173.952.173.325.006.648-.053.948-.173.275-.116.506-.277.693-.483.188-.207.328-.447.422-.724.093-.277.14-.576.14-.897 0-.322-.047-.622-.14-.903a2.029 2.029 0 0 0-.422-.728 1.978 1.978 0 0 0-.693-.486 2.376 2.376 0 0 0-.948-.178c-.362 0-.679.06-.951.178-.273.118-.502.28-.69.486a2.042 2.042 0 0 0-.421.728c-.093.28-.14.58-.14.903-.003.304.045.607.14.897a1.948 1.948 0 0 0 1.11 1.207Zm.952-.453c.193 0 .376-.037.549-.11a1.3 1.3 0 0 0 .452-.319c.128-.138.229-.31.302-.515.074-.207.11-.442.11-.707 0-.266-.036-.5-.109-.708a1.529 1.529 0 0 0-.303-.52 1.289 1.289 0 0 0-.452-.322 1.388 1.388 0 0 0-.549-.11c-.189 0-.376.037-.549.11a1.285 1.285 0 0 0-.451.322 1.498 1.498 0 0 0-.302.521c-.074.206-.11.441-.11.707 0 .265.036.5.109.707.074.206.174.377.303.516s.279.244.451.317c.174.074.356.11.549.11Zm8.007-3.844h-2.097v4.377h2.466c.189.002.376-.031.553-.097a1.37 1.37 0 0 0 .438-.267c.124-.114.222-.253.286-.407a1.31 1.31 0 0 0 .101-.516c0-.293-.078-.533-.233-.72a1.046 1.046 0 0 0-.627-.355v-.009c.21-.096.374-.217.491-.364.117-.147.175-.338.175-.576 0-.22-.043-.4-.131-.541a.887.887 0 0 0-.351-.326 1.556 1.556 0 0 0-.495-.157 3.825 3.825 0 0 0-.576-.042Zm.228 3.767c.246 0 .431-.068.558-.207a.745.745 0 0 0 .188-.52.6.6 0 0 0-.202-.475c-.134-.118-.359-.178-.675-.178h-1.457v1.38h1.588Zm.364-2.142c-.125.113-.349.17-.671.17h-1.281v-1.186h1.281c.328 0 .553.05.676.148.126.105.194.26.184.42a.57.57 0 0 1-.189.448ZM19.761 11.393c1.322.098 2.68-.672 3.527-1.68.813-1.024 1.37-2.416 1.215-3.83-1.177.054-2.647.82-3.495 1.821-.75.882-1.42 2.328-1.247 3.689Zm9.685 12.022c-.038-.014-3.15-1.21-3.181-4.827-.027-2.995 2.417-4.464 2.565-4.553l.003-.002c-1.405-2.062-3.583-2.345-4.35-2.367-1.119-.118-2.218.32-3.116.68-.57.227-1.058.423-1.42.423-.412 0-.914-.204-1.478-.432-.737-.298-1.577-.639-2.453-.62-1.991.031-3.853 1.191-4.875 2.992-2.107 3.674-.536 9.073 1.484 12.043 1.01 1.454 2.19 3.077 3.735 3.02.701-.028 1.198-.239 1.712-.457.594-.251 1.21-.512 2.188-.512.922 0 1.512.253 2.078.495.543.233 1.064.456 1.834.438 1.623-.026 2.645-1.46 3.619-2.929 1.168-1.666 1.635-3.308 1.655-3.392ZM74.268 28.71c.633-.575.949-1.32.949-2.234 0-.743-.217-1.365-.65-1.863-.433-.5-1.108-.936-2.027-1.307-.75-.3-1.269-.576-1.553-.83a1.316 1.316 0 0 1-.49-1.053c0-.384.143-.707.427-.974.338-.297.808-.447 1.41-.447.761 0 1.442.166 2.043.495l.427-1.404c-.644-.34-1.45-.51-2.423-.51-1.09 0-1.96.282-2.614.846-.655.564-.983 1.288-.983 2.172 0 1.353.934 2.382 2.803 3.083.688.256 1.18.533 1.474.832.296.298.443.665.443 1.102 0 .49-.178.882-.537 1.174-.36.293-.861.44-1.506.44a4.666 4.666 0 0 1-2.473-.687l-.396 1.436c.696.447 1.618.67 2.767.67 1.244 0 2.213-.314 2.909-.942Zm-26.65.781h-1.822l-1-3.157h-3.469l-.95 3.157h-1.775L42.04 18.74h2.123l3.455 10.752Zm-3.121-4.483-.903-2.807c-.096-.287-.275-.962-.539-2.026h-.032a77.136 77.136 0 0 1-.507 2.026l-.887 2.807h2.868Zm10.9 3.637c.707-.764 1.06-1.806 1.06-3.125 0-1.18-.303-2.133-.91-2.856-.607-.723-1.366-1.084-2.274-1.084-1.162 0-2.027.462-2.598 1.388h-.032l-.096-1.229h-1.505c.042.872.065 1.722.065 2.552v8.36h1.71v-4.085h.032c.444.734 1.173 1.1 2.186 1.1.94 0 1.727-.34 2.362-1.02Zm-.681-3.063c0-.754-.17-1.377-.508-1.865-.37-.51-.867-.767-1.489-.767-.423 0-.805.143-1.148.423a1.96 1.96 0 0 0-.674 1.11 2.264 2.264 0 0 0-.08.524V26.3c0 .564.172 1.04.516 1.428.343.39.79.582 1.339.582.644 0 1.144-.25 1.503-.749.36-.5.54-1.159.54-1.979Zm9.536 3.063c.709-.764 1.062-1.806 1.062-3.125 0-1.18-.304-2.133-.91-2.856-.608-.723-1.366-1.084-2.274-1.084-1.162 0-2.028.462-2.598 1.388H59.5l-.096-1.229H57.9c.042.872.064 1.722.064 2.552v8.36h1.71v-4.085h.032c.443.734 1.172 1.1 2.186 1.1.94 0 1.727-.34 2.36-1.02Zm-.68-3.063c0-.754-.17-1.377-.509-1.865-.37-.51-.864-.767-1.488-.767-.423 0-.805.143-1.15.423a1.963 1.963 0 0 0-.672 1.11 2.315 2.315 0 0 0-.08.524V26.3c0 .564.172 1.04.515 1.428.343.388.79.582 1.34.582.644 0 1.145-.25 1.504-.749.36-.5.54-1.159.54-1.979Zm17.3-2.55h-1.886v3.764c0 .957.333 1.436 1 1.436.305 0 .558-.028.76-.08l.047 1.307c-.338.127-.781.19-1.331.19-.675 0-1.203-.206-1.584-.622-.38-.415-.572-1.111-.572-2.09V23.03h-1.123v-1.294h1.123v-1.419l1.68-.51v1.93h1.886V23.03Zm7.494 5.454c.675-.764 1.015-1.743 1.015-2.935 0-1.16-.328-2.106-.984-2.838-.687-.755-1.596-1.133-2.725-1.133-1.172 0-2.105.383-2.796 1.15-.692.764-1.038 1.748-1.038 2.95 0 1.148.336 2.1 1.007 2.855.67.754 1.57 1.131 2.7 1.131 1.172 0 2.113-.392 2.821-1.18Zm-.76-2.88c0-.714-.152-1.327-.46-1.838-.358-.62-.87-.928-1.535-.928-.689 0-1.21.31-1.568.928-.308.512-.46 1.135-.46 1.871 0 .715.152 1.329.46 1.84.368.618.886.927 1.553.927.653 0 1.166-.315 1.535-.944.316-.52.475-1.141.475-1.855Zm7.335-2.353Zm0 0a2.955 2.955 0 0 0-.539-.047c-.601 0-1.067.229-1.395.687-.284.403-.427.914-.427 1.53v4.068h-1.71l.016-5.311c0-.894-.022-1.707-.064-2.441h1.49l.063 1.484h.047c.18-.51.466-.92.855-1.228a2.06 2.06 0 0 1 1.237-.415c.158 0 .3.01.427.031v1.642Zm7.652 1.995c0 .31-.02.569-.063.782h-5.132c.02.766.268 1.35.744 1.755.433.361.992.542 1.678.542.761 0 1.454-.122 2.078-.366l.268 1.195c-.729.32-1.589.479-2.581.479-1.195 0-2.132-.354-2.814-1.06-.68-.708-1.021-1.657-1.021-2.848 0-1.17.317-2.142.95-2.918.666-.83 1.563-1.244 2.693-1.244 1.11 0 1.95.414 2.521 1.244.452.658.679 1.473.679 2.44Zm-1.964-1.77c.232.372.344.813.332 1.323h-3.563c.052-.52.221-.968.506-1.34.348-.468.803-.702 1.361-.702.613 0 1.068.24 1.364.719ZM42.142 14.815c-.372 0-.716-.044-1.03-.132a2.296 2.296 0 0 1-.817-.404 1.859 1.859 0 0 1-.536-.686c-.128-.275-.192-.604-.192-.985h.794c.006.282.06.52.161.716.103.198.236.355.403.475.165.121.359.207.58.26.221.053.457.079.707.079.215 0 .416-.03.602-.093.177-.056.342-.146.486-.264.283-.233.445-.584.44-.953 0-.228-.044-.414-.131-.557a.923.923 0 0 0-.344-.335 1.49 1.49 0 0 0-.499-.163 3.9 3.9 0 0 0-.598-.044 11.193 11.193 0 0 0-.558.018v-.686c.07.012.163.018.28.018h.278c.198 0 .38-.02.547-.058.164-.038.307-.1.426-.188a.886.886 0 0 0 .28-.348c.068-.144.1-.32.1-.531a.973.973 0 0 0-.108-.484.869.869 0 0 0-.297-.312 1.325 1.325 0 0 0-.428-.171 2.334 2.334 0 0 0-.502-.053c-.46 0-.82.1-1.083.303-.262.203-.416.532-.462.99h-.795c.012-.335.08-.626.206-.876.125-.249.292-.453.501-.615.21-.161.456-.283.738-.365.283-.082.59-.123.921-.123.297 0 .574.034.834.1.26.07.485.173.676.313.193.141.344.318.454.533.111.214.166.467.166.76 0 .17-.029.328-.087.474a1.508 1.508 0 0 1-.23.396c-.187.228-.434.4-.713.492v.027c.191.036.375.105.541.206.3.179.523.462.63.796.052.164.078.33.078.5-.016.482-.215.938-.555 1.275-.216.213-.47.382-.75.497-.307.132-.677.198-1.114.198Zm4.813-.044a2.426 2.426 0 0 1-.576-.066 1.293 1.293 0 0 1-.476-.22 1.073 1.073 0 0 1-.324-.395 1.324 1.324 0 0 1-.117-.585c0-.258.044-.469.13-.633.088-.164.203-.297.345-.4a1.58 1.58 0 0 1 .49-.233c.184-.052.37-.096.563-.132.204-.04.398-.07.58-.092.184-.02.345-.05.485-.088a.805.805 0 0 0 .332-.166c.081-.074.122-.18.122-.321a.75.75 0 0 0-.092-.396.63.63 0 0 0-.235-.229.955.955 0 0 0-.324-.105 2.413 2.413 0 0 0-.353-.027c-.314 0-.576.06-.786.18-.21.121-.323.348-.34.682h-.742c.011-.281.07-.519.174-.712.105-.194.245-.35.42-.47.174-.121.373-.207.598-.26.223-.053.463-.079.72-.079.203 0 .405.015.607.044.2.03.382.089.545.18.163.092.294.219.393.383.099.164.148.378.148.641v2.339c0 .176.01.304.031.386.02.083.089.124.205.124a.87.87 0 0 0 .227-.044v.58c-.128.076-.305.114-.532.114a.635.635 0 0 1-.458-.163c-.115-.107-.171-.285-.171-.531a1.777 1.777 0 0 1-.712.531c-.27.11-.563.163-.877.163Zm.794-.752a1.727 1.727 0 0 1-.628.101 1.52 1.52 0 0 1-.332-.035.802.802 0 0 1-.275-.114.621.621 0 0 1-.192-.206.606.606 0 0 1-.074-.313c0-.187.041-.335.126-.444.086-.11.2-.196.328-.25.145-.062.297-.103.454-.123l.502-.07c.165-.024.324-.05.476-.08a.814.814 0 0 0 .366-.158v.765a.851.851 0 0 1-.078.338c-.058.127-.141.242-.245.335-.11.102-.253.186-.428.254Zm2.857-3.89h3.091v.66h-2.349v3.885h-.742V10.13Zm4.647 0h-.742v6.277h.742v-2.338h.018a1.2 1.2 0 0 0 .3.339c.117.089.245.161.38.215.248.096.512.147.778.15.31.006.62-.057.903-.186.25-.116.472-.29.646-.505.176-.222.307-.476.385-.748.084-.283.126-.59.126-.918 0-.322-.044-.627-.13-.914a2.295 2.295 0 0 0-.39-.76 1.83 1.83 0 0 0-.646-.523 2.02 2.02 0 0 0-.912-.194c-.314 0-.602.057-.864.171a1.12 1.12 0 0 0-.576.55h-.018v-.615Zm1.397 3.992c.25 0 .463-.05.637-.15.175-.1.315-.231.42-.395a1.73 1.73 0 0 0 .227-.563c.046-.214.07-.432.07-.65 0-.21-.029-.418-.084-.62a1.68 1.68 0 0 0-.252-.54 1.243 1.243 0 0 0-1.062-.52c-.25 0-.462.05-.637.15-.175.1-.317.23-.428.39a1.642 1.642 0 0 0-.24.55c-.1.418-.1.854.005 1.27.052.21.135.392.248.55.114.158.26.285.441.382.18.098.399.146.655.146Zm3.407 2.347c.087.011.175.017.262.017a1.3 1.3 0 0 0 .432-.066.947.947 0 0 0 .341-.211c.111-.11.205-.235.279-.373.085-.153.17-.34.258-.563l1.964-5.142h-.786l-1.266 3.718h-.017l-1.319-3.718h-.838l1.79 4.518-.305.765a.89.89 0 0 1-.245.307.593.593 0 0 1-.367.106.723.723 0 0 1-.223-.035l-.213-.07v.685c.082.03.167.05.253.062Zm6.017-1.697c-.599 0-1.068-.135-1.405-.404-.338-.27-.521-.654-.55-1.152h.75c.024.334.146.575.367.721.221.146.498.22.83.22.355 0 .628-.076.82-.229a.71.71 0 0 0 .289-.58c0-.229-.073-.407-.219-.536-.145-.13-.393-.194-.742-.194h-.602v-.606h.48c.262 0 .486-.054.672-.162.187-.11.28-.298.28-.568 0-.17-.08-.32-.241-.448-.16-.129-.397-.194-.711-.194-.134 0-.266.015-.398.045-.13.029-.248.076-.353.14a.838.838 0 0 0-.262.255.87.87 0 0 0-.13.387h-.752c.018-.281.085-.514.201-.7.117-.184.262-.33.437-.439.174-.107.372-.186.593-.232.222-.047.446-.07.673-.07.233 0 .45.023.654.07.204.046.383.12.537.224.155.103.276.23.368.382.09.152.135.334.135.545 0 .264-.074.478-.224.642a.95.95 0 0 1-.501.307v.018c.105.018.21.053.314.106.106.053.2.126.28.214.081.092.148.203.2.334.053.133.079.287.079.462.01.44-.208.854-.576 1.09a1.945 1.945 0 0 1-.598.264 2.742 2.742 0 0 1-.695.088Zm3.696-4.641h-.742v4.544h.951l2.13-3.71v3.71h.743V10.13H71.9l-2.13 3.71v-3.71Zm5.484.659H73.64v-.66h3.973v.66h-1.615v3.885h-.743V10.79Zm4.119 3.806c.271.117.587.176.947.176.513 0 .938-.128 1.275-.382.338-.256.556-.64.655-1.156h-.734c-.064.298-.196.521-.397.668-.2.146-.458.22-.772.22-.245 0-.457-.042-.638-.124a1.238 1.238 0 0 1-.698-.804 1.81 1.81 0 0 1-.07-.567h3.379a3.644 3.644 0 0 0-.074-.87 2.51 2.51 0 0 0-.333-.844 1.985 1.985 0 0 0-.637-.638c-.265-.167-.598-.25-1-.25a1.994 1.994 0 0 0-1.522.668c-.19.211-.337.461-.442.752-.105.29-.157.605-.157.945 0 .345.045.665.136.958.082.277.22.535.405.756.185.214.417.383.677.492Zm2.16-2.628a1.537 1.537 0 0 0-.117-.501 1.266 1.266 0 0 0-1.183-.782c-.192 0-.365.033-.519.101a1.2 1.2 0 0 0-.398.276c-.11.118-.198.254-.262.409a1.563 1.563 0 0 0-.113.497h2.593Zm6.457-1.837h-2.087v4.544h2.454a1.47 1.47 0 0 0 .55-.1 1.36 1.36 0 0 0 .436-.278c.123-.118.22-.262.283-.422.068-.164.101-.342.101-.536 0-.304-.076-.554-.23-.747a1.034 1.034 0 0 0-.625-.37v-.008c.21-.1.372-.226.489-.378.116-.152.174-.352.174-.598 0-.228-.043-.416-.13-.562a.894.894 0 0 0-.35-.338 1.505 1.505 0 0 0-.493-.163 3.637 3.637 0 0 0-.572-.044Zm.227 3.911c.244 0 .429-.071.555-.215a.793.793 0 0 0 .187-.54.637.637 0 0 0-.2-.493c-.135-.123-.359-.185-.673-.185h-1.45v1.433h1.58Zm.362-2.224c-.124.117-.347.176-.668.176h-1.274v-1.23h1.274c.326 0 .55.05.673.153.125.108.192.27.183.435a.608.608 0 0 1-.188.466Z" fill="#fff"/><defs><linearGradient id="paint0_linear_4449_1082" x1="167.63" y1="11.892" x2="146.735" y2="11.892" gradientUnits="userSpaceOnUse"><stop stop-color="#FEE000"/><stop offset=".42" stop-color="#FBBC0E"/><stop offset=".78" stop-color="#FAA418"/><stop offset="1" stop-color="#F99B1C"/></linearGradient><linearGradient id="paint1_linear_4449_1082" x1="147.373" y1="17.189" x2="140.317" y2="37.433" gradientUnits="userSpaceOnUse"><stop stop-color="#EF4547"/><stop offset="1" stop-color="#C6186D"/></linearGradient><linearGradient id="paint2_linear_4449_1082" x1="138.769" y1="2.011" x2="144.536" y2="18.536" gradientUnits="userSpaceOnUse"><stop stop-color="#279E6F"/><stop offset=".04" stop-color="#2BA06F"/><stop offset=".46" stop-color="#53B26C"/><stop offset=".8" stop-color="#6BBD6A"/><stop offset="1" stop-color="#74C169"/></linearGradient></defs></svg>