<svg width="40" height="120" fill="none" xmlns="http://www.w3.org/2000/svg"><path d="M38.75 108.75v-3.125l-5-4.375h-5M15 116.25a2.5 2.5 0 1 0 0-5 2.5 2.5 0 0 0 0 5ZM33.75 116.25a2.5 2.5 0 1 0 0-5 2.5 2.5 0 0 0 0 5Z" stroke="#666" stroke-width="2" stroke-miterlimit="10" stroke-linecap="round" stroke-linejoin="round"/><path d="M12.5 113.75H10v-5m0 0h28.75v5h-2.5m-26.25-5V98.625M15.313 95H28.75v13.75m-27.5-5H5m-1.25 5H5" stroke="#666" stroke-width="2" stroke-miterlimit="10" stroke-linecap="round" stroke-linejoin="round"/><path d="M12.5 113.75H10v-5m0 0h28.75v5h-2.5m-26.25-5V98.625M15.313 95H28.75v13.75m-27.5-5H5m-1.25 5H5m12.813 5H31.25" stroke="#666" stroke-width="2" stroke-miterlimit="10" stroke-linecap="round" stroke-linejoin="round"/><path d="M8.75 98.75a7.5 7.5 0 1 0 0-15 7.5 7.5 0 0 0 0 15Z" stroke="#666" stroke-width="2" stroke-miterlimit="10" stroke-linecap="round" stroke-linejoin="round"/><path d="M8.75 87.5v5h3.75M30 49.375l-6.25-6.25-6.25 6.25m6.25 11.25v-17.5 17.5ZM2.5 44.375h3.75l5 22.5H37.5M15 76.875a2.5 2.5 0 1 0 0-5 2.5 2.5 0 0 0 0 5ZM31.25 76.875a2.5 2.5 0 1 0 0-5 2.5 2.5 0 0 0 0 5ZM25 36.25s7.5 0 7.5-8.75h2.75a2.25 2.25 0 0 0 2.25-2.25V18.5a2.25 2.25 0 0 0-2.25-2.25H32.5v-2.5c0-6.903-4.972-12.5-11.875-12.5h-1.25C12.471 1.25 7.5 6.847 7.5 13.75v2.5H4.75A2.25 2.25 0 0 0 2.5 18.5v6.75a2.25 2.25 0 0 0 2.25 2.25h1.5" stroke="#666" stroke-width="2" stroke-miterlimit="10" stroke-linecap="round" stroke-linejoin="round"/><path d="M25 36.25a2.5 2.5 0 0 0-2.5-2.5H20a2.5 2.5 0 0 0 0 5h2.5a2.5 2.5 0 0 0 2.5-2.5ZM25 15l-3.75 8.75H30M27.5 20v7.5M11.25 15.969a3.75 3.75 0 0 1 5.398 5.173L11.25 27.5h7.5" stroke="#666" stroke-width="2" stroke-miterlimit="10" stroke-linecap="round" stroke-linejoin="round"/></svg>