<svg width="144" height="36" viewBox="0 0 144 36" fill="none" xmlns="http://www.w3.org/2000/svg">
<path d="M143.5 18C143.5 27.665 135.665 35.5 126 35.5C116.335 35.5 108.5 27.665 108.5 18C108.5 8.33502 116.335 0.5 126 0.5C135.665 0.5 143.5 8.33502 143.5 18Z" stroke="#CCCCCC"></path>
<path fill-rule="evenodd" clip-rule="evenodd" d="M126 13.8928C126.738 13.8928 127.423 14.0773 128.054 14.4464C128.685 14.8154 129.185 15.3154 129.554 15.9464C129.923 16.5773 130.107 17.2619 130.107 18C130.107 18.7381 129.923 19.4226 129.554 20.0535C129.185 20.6845 128.685 21.1845 128.054 21.5535C127.423 21.9226 126.738 22.1071 126 22.1071C125.262 22.1071 124.577 21.9226 123.946 21.5535C123.315 21.1845 122.815 20.6845 122.446 20.0535C122.077 19.4226 121.893 18.7381 121.893 18C121.893 17.2619 122.077 16.5773 122.446 15.9464C122.815 15.3154 123.315 14.8154 123.946 14.4464C124.577 14.0773 125.262 13.8928 126 13.8928ZM126 20.7996C126.771 20.7996 127.431 20.5259 127.978 19.9784C128.526 19.4309 128.8 18.7715 128.8 18C128.8 17.2286 128.526 16.5691 127.978 16.0217C127.431 15.4742 126.771 15.2004 126 15.2004C125.229 15.2004 124.569 15.4742 124.022 16.0217C123.474 16.5691 123.2 17.2286 123.2 18C123.2 18.7715 123.474 19.4309 124.022 19.9784C124.569 20.5259 125.229 20.7996 126 20.7996ZM131.25 13.7143C131.226 13.9762 131.125 14.2024 130.946 14.3929C130.768 14.5833 130.548 14.6786 130.286 14.6786C130.024 14.6786 129.798 14.5833 129.607 14.3929C129.417 14.2024 129.321 13.9762 129.321 13.7143C129.321 13.4524 129.417 13.2262 129.607 13.0357C129.798 12.8452 130.024 12.75 130.286 12.75C130.548 12.75 130.774 12.8452 130.964 13.0357C131.155 13.2262 131.25 13.4524 131.25 13.7143ZM133.964 14.6786C133.988 15.3452 134 16.4524 134 18C134 19.5476 133.982 20.6607 133.946 21.3393C133.911 22.0179 133.81 22.6071 133.643 23.1071C133.429 23.7024 133.101 24.2202 132.661 24.6607C132.22 25.1012 131.702 25.4286 131.107 25.6429C130.607 25.8095 130.018 25.9107 129.339 25.9464C128.661 25.9821 127.548 26 126 26C124.452 26 123.339 25.9821 122.661 25.9464C121.982 25.9107 121.393 25.7976 120.893 25.6071C120.298 25.4167 119.78 25.1012 119.339 24.6607C118.899 24.2202 118.571 23.7024 118.357 23.1071C118.19 22.6071 118.089 22.0179 118.054 21.3393C118.018 20.6607 118 19.5476 118 18C118 16.4524 118.018 15.3393 118.054 14.6607C118.089 13.9821 118.19 13.3929 118.357 12.8929C118.571 12.2976 118.899 11.7798 119.339 11.3393C119.78 10.8988 120.298 10.5714 120.893 10.3571C121.393 10.1905 121.982 10.0893 122.661 10.0536C123.339 10.0179 124.452 10 126 10C127.548 10 128.661 10.0179 129.339 10.0536C130.018 10.0893 130.607 10.1905 131.107 10.3571C131.702 10.5714 132.22 10.8988 132.661 11.3393C133.101 11.7798 133.429 12.2976 133.643 12.8929C133.81 13.3929 133.917 13.9881 133.964 14.6786ZM132.446 22.8623C132.594 22.4448 132.692 21.7817 132.741 20.8731C132.766 20.3329 132.778 19.5716 132.778 18.5893V17.4106C132.778 16.4037 132.766 15.6425 132.741 15.1268C132.692 14.1936 132.594 13.5305 132.446 13.1376C132.152 12.3764 131.624 11.8484 130.862 11.5537C130.469 11.4063 129.806 11.3081 128.873 11.259C128.333 11.2344 127.572 11.2222 126.589 11.2222H125.411C124.428 11.2222 123.667 11.2344 123.127 11.259C122.218 11.3081 121.555 11.4063 121.138 11.5537C120.376 11.8484 119.848 12.3764 119.554 13.1376C119.406 13.5305 119.308 14.1936 119.259 15.1268C119.235 15.667 119.222 16.4283 119.222 17.4106V18.5893C119.222 19.5716 119.235 20.3329 119.259 20.8731C119.308 21.7817 119.406 22.4448 119.554 22.8623C119.873 23.6235 120.401 24.1515 121.138 24.4462C121.555 24.5935 122.218 24.6918 123.127 24.7409C123.667 24.7654 124.428 24.7777 125.411 24.7777H126.589C127.596 24.7777 128.357 24.7654 128.873 24.7409C129.806 24.6918 130.469 24.5935 130.862 24.4462C131.624 24.127 132.152 23.599 132.446 22.8623Z" fill="#CCCCCC"></path>
<path d="M107.5 18C107.5 27.665 99.665 35.5 90 35.5C80.335 35.5 72.5 27.665 72.5 18C72.5 8.33502 80.335 0.5 90 0.5C99.665 0.5 107.5 8.33502 107.5 18Z" stroke="#CCCCCC"></path>
<path d="M96.8743 18.1481L96.8795 18.1401L96.8843 18.132C97.3802 17.3045 97.8062 16.5757 98.162 15.946C98.6474 15.0868 98.97 14.4007 99.0624 13.9338C99.1438 13.6069 99.1599 13.216 98.9173 12.9011C98.6701 12.5802 98.2792 12.5 97.9386 12.5H95.8551C95.5563 12.5 95.2699 12.5764 95.0239 12.754C94.7857 12.926 94.6215 13.1669 94.513 13.4393L94.1669 14.1745L94.1637 14.1813L94.1607 14.1882C93.8845 14.8237 93.5979 15.4078 93.3014 15.941C92.8659 16.6952 92.4363 17.3174 92.0143 17.8128C91.8056 18.0565 91.6666 18.1855 91.5895 18.2406C91.5885 18.2208 91.588 18.199 91.588 18.175V13.825C91.588 13.5082 91.5499 13.1673 91.3819 12.9123C91.1719 12.5937 90.8272 12.5 90.523 12.5H87.239C86.9657 12.5 86.7205 12.6018 86.525 12.7864C86.3257 12.9746 86.2093 13.2222 86.2093 13.5063C86.2093 13.8197 86.3838 14.1086 86.5614 14.3377C86.7088 14.5278 86.7982 14.6812 86.8459 14.7996L86.8512 14.8127L86.8572 14.8255C86.9648 15.054 87.0352 15.3349 87.0568 15.6777V18.925C87.0568 19.0114 87.0545 19.0853 87.0505 19.1476C86.9275 19.0421 86.7695 18.8713 86.5757 18.6198C86.1793 18.1054 85.7726 17.425 85.3584 16.5696L85.3584 16.5696L85.3564 16.5655C84.8973 15.6391 84.507 14.6888 84.1854 13.7143C84.0851 13.3708 83.9441 13.0445 83.7196 12.8278C83.4628 12.5798 83.1214 12.5 82.7897 12.5H80.7062C80.4057 12.5 80.0869 12.5667 79.8415 12.7882C79.5864 13.0185 79.5 13.334 79.5 13.6375C79.5 13.9605 79.5999 14.4563 79.7637 15.0775L79.7678 15.0931L79.773 15.1085C80.0391 15.905 80.388 16.7602 80.818 17.6736C81.3716 18.8747 82.0558 20.0599 82.8693 21.2294C83.7493 22.5776 84.7869 23.6316 85.9869 24.3751C87.18 25.1141 88.3882 25.5 89.6049 25.5C89.9395 25.5 90.2359 25.4805 90.4866 25.4361C90.7292 25.3931 90.9718 25.3199 91.165 25.1831L91.1718 25.1783L91.1783 25.1734C91.5276 24.9084 91.6137 24.4999 91.588 24.1194V23.1625C91.588 22.5538 91.6007 22.202 91.6189 22.0667L91.6233 22.0335V22C91.6233 21.9605 91.6247 21.9275 91.6267 21.9004C91.6348 21.9001 91.6436 21.9 91.653 21.9C91.7202 21.9 91.9004 21.9456 92.227 22.1689C92.5365 22.3806 92.9189 22.7108 93.3768 23.1724C93.6494 23.4622 93.9648 23.8213 94.3235 24.2515C94.5094 24.4743 94.6709 24.6592 94.807 24.8037C94.9306 24.935 95.0519 25.0533 95.1616 25.1339C95.4543 25.3711 95.7961 25.5 96.173 25.5H98.2564C98.6328 25.5 99.0098 25.3886 99.2654 25.0678C99.5296 24.7362 99.5375 24.3227 99.4493 23.9479L99.4457 23.9327L99.4412 23.9177C99.308 23.4776 98.9694 22.9241 98.4891 22.2818C97.9997 21.6274 97.3276 20.8349 96.4775 19.9069L96.1701 19.5441C96.1186 19.4797 96.0912 19.4339 96.078 19.4058C96.078 19.4057 96.0779 19.4056 96.0779 19.4056C96.0805 19.3976 96.0841 19.3874 96.0893 19.3746C96.1086 19.3268 96.1419 19.2606 96.1951 19.1741C96.2032 19.1633 96.2086 19.1555 96.2098 19.1539C96.222 19.1368 96.2366 19.1156 96.2528 19.0918C96.2856 19.0438 96.3304 18.9768 96.3867 18.8918C96.4996 18.7215 96.6622 18.4733 96.8743 18.1481Z" stroke="#CCCCCC"></path>
<path d="M71.5 18C71.5 27.665 63.665 35.5 54 35.5C44.335 35.5 36.5 27.665 36.5 18C36.5 8.33502 44.335 0.5 54 0.5C63.665 0.5 71.5 8.33502 71.5 18Z" stroke="#CCCCCC"></path>
<path d="M53.3125 15.2812C53.3125 15.3495 53.3139 15.4177 53.3167 15.4858C52.27 15.3688 51.278 15.0691 50.3377 14.5864C49.2228 14.0142 48.2839 13.2469 47.5162 12.2824L47.0672 11.7182L46.6963 12.3365C46.3401 12.9302 46.1562 13.5653 46.1562 14.2344C46.1562 14.8363 46.2877 15.401 46.5532 15.9208L46.1562 15.6863V16.5625V16.625C46.1562 17.5144 46.4483 18.3142 47.0211 19.0063C47.1245 19.1312 47.2329 19.2482 47.3463 19.3571L47.1021 19.3327L47.3366 20.0598C47.5769 20.8044 48.0178 21.4242 48.6472 21.9111C48.9257 22.1265 49.2239 22.295 49.5402 22.4168C48.6924 22.8481 47.7747 23.0625 46.7812 23.0625C46.5009 23.0625 46.256 23.0525 46.0453 23.0333L45.7293 23.9517C47.332 24.9835 49.1033 25.5 51.0312 25.5C53.0368 25.5 54.8316 24.9864 56.3987 23.9497C57.8274 23.0259 58.9375 21.7824 59.7258 20.2288C60.4895 18.766 60.875 17.2399 60.875 15.6562C60.875 15.5948 60.874 15.5338 60.8715 15.4743C61.464 14.9997 61.9778 14.446 62.412 13.8145L63.3978 12.3806L61.8012 13.0725C61.7795 13.0819 61.7578 13.0911 61.7361 13.1003C61.8573 12.883 61.9581 12.6509 62.0381 12.4043L62.4411 11.1617L61.3114 11.8176C60.7859 12.1228 60.2225 12.3462 59.6195 12.4877C59.3144 12.2202 58.9741 11.9999 58.6002 11.8273C58.1236 11.6073 57.6088 11.5 57.0625 11.5C56.3914 11.5 55.7627 11.669 55.1856 12.0056C54.6085 12.3422 54.1504 12.8072 53.8159 13.3926C53.4814 13.9779 53.3125 14.6102 53.3125 15.2812Z" stroke="#CCCCCC"></path>
<path d="M35.5 18C35.5 27.665 27.665 35.5 18 35.5C8.33502 35.5 0.5 27.665 0.5 18C0.5 8.33502 8.33502 0.5 18 0.5C27.665 0.5 35.5 8.33502 35.5 18Z" stroke="#CCCCCC"></path>
<path d="M15.125 27V27.5H15.625H18.8295H19.3295V27V19.002H21.3182H21.7613L21.8146 18.5621L22.2236 15.1851L22.2915 14.625H21.7273H19.3295V12.7871C19.3295 12.2824 19.417 12.019 19.5022 11.8998C19.5897 11.789 19.8127 11.6543 20.3636 11.6543H22H22.5V11.1543V8.14844V7.72261L22.0796 7.65482C21.4292 7.54993 20.6043 7.5 19.6136 7.5C18.2904 7.5 17.185 7.93352 16.3504 8.8278C15.5118 9.72635 15.125 10.9583 15.125 12.4531V14.625H13H12.5V15.125V18.502V19.002H13H15.125V27Z" stroke="#CCCCCC"></path>
</svg>
