<svg width="147" height="36" viewBox="0 0 147 36" fill="none" xmlns="http://www.w3.org/2000/svg">
<path d="M146.5 18C146.5 27.665 138.665 35.5 129 35.5C119.335 35.5 111.5 27.665 111.5 18C111.5 8.33502 119.335 0.5 129 0.5C138.665 0.5 146.5 8.33502 146.5 18Z" stroke="#CCCCCC"></path>
<path fill-rule="evenodd" clip-rule="evenodd" d="M129 13.8928C129.738 13.8928 130.423 14.0773 131.054 14.4464C131.685 14.8154 132.185 15.3154 132.554 15.9464C132.923 16.5773 133.107 17.2619 133.107 18C133.107 18.7381 132.923 19.4226 132.554 20.0535C132.185 20.6845 131.685 21.1845 131.054 21.5535C130.423 21.9226 129.738 22.1071 129 22.1071C128.262 22.1071 127.577 21.9226 126.946 21.5535C126.315 21.1845 125.815 20.6845 125.446 20.0535C125.077 19.4226 124.893 18.7381 124.893 18C124.893 17.2619 125.077 16.5773 125.446 15.9464C125.815 15.3154 126.315 14.8154 126.946 14.4464C127.577 14.0773 128.262 13.8928 129 13.8928ZM129 20.7996C129.771 20.7996 130.431 20.5259 130.978 19.9784C131.526 19.4309 131.8 18.7715 131.8 18C131.8 17.2286 131.526 16.5691 130.978 16.0217C130.431 15.4742 129.771 15.2004 129 15.2004C128.229 15.2004 127.569 15.4742 127.022 16.0217C126.474 16.5691 126.2 17.2286 126.2 18C126.2 18.7715 126.474 19.4309 127.022 19.9784C127.569 20.5259 128.229 20.7996 129 20.7996ZM134.25 13.7143C134.226 13.9762 134.125 14.2024 133.946 14.3929C133.768 14.5833 133.548 14.6786 133.286 14.6786C133.024 14.6786 132.798 14.5833 132.607 14.3929C132.417 14.2024 132.321 13.9762 132.321 13.7143C132.321 13.4524 132.417 13.2262 132.607 13.0357C132.798 12.8452 133.024 12.75 133.286 12.75C133.548 12.75 133.774 12.8452 133.964 13.0357C134.155 13.2262 134.25 13.4524 134.25 13.7143ZM136.964 14.6786C136.988 15.3452 137 16.4524 137 18C137 19.5476 136.982 20.6607 136.946 21.3393C136.911 22.0179 136.81 22.6071 136.643 23.1071C136.429 23.7024 136.101 24.2202 135.661 24.6607C135.22 25.1012 134.702 25.4286 134.107 25.6429C133.607 25.8095 133.018 25.9107 132.339 25.9464C131.661 25.9821 130.548 26 129 26C127.452 26 126.339 25.9821 125.661 25.9464C124.982 25.9107 124.393 25.7976 123.893 25.6071C123.298 25.4167 122.78 25.1012 122.339 24.6607C121.899 24.2202 121.571 23.7024 121.357 23.1071C121.19 22.6071 121.089 22.0179 121.054 21.3393C121.018 20.6607 121 19.5476 121 18C121 16.4524 121.018 15.3393 121.054 14.6607C121.089 13.9821 121.19 13.3929 121.357 12.8929C121.571 12.2976 121.899 11.7798 122.339 11.3393C122.78 10.8988 123.298 10.5714 123.893 10.3571C124.393 10.1905 124.982 10.0893 125.661 10.0536C126.339 10.0179 127.452 10 129 10C130.548 10 131.661 10.0179 132.339 10.0536C133.018 10.0893 133.607 10.1905 134.107 10.3571C134.702 10.5714 135.22 10.8988 135.661 11.3393C136.101 11.7798 136.429 12.2976 136.643 12.8929C136.81 13.3929 136.917 13.9881 136.964 14.6786ZM135.446 22.8623C135.594 22.4448 135.692 21.7817 135.741 20.8731C135.766 20.3329 135.778 19.5716 135.778 18.5893V17.4106C135.778 16.4037 135.766 15.6425 135.741 15.1268C135.692 14.1936 135.594 13.5305 135.446 13.1376C135.152 12.3764 134.624 11.8484 133.862 11.5537C133.469 11.4063 132.806 11.3081 131.873 11.259C131.333 11.2344 130.572 11.2222 129.589 11.2222H128.411C127.428 11.2222 126.667 11.2344 126.127 11.259C125.218 11.3081 124.555 11.4063 124.138 11.5537C123.376 11.8484 122.848 12.3764 122.554 13.1376C122.406 13.5305 122.308 14.1936 122.259 15.1268C122.235 15.667 122.222 16.4283 122.222 17.4106V18.5893C122.222 19.5716 122.235 20.3329 122.259 20.8731C122.308 21.7817 122.406 22.4448 122.554 22.8623C122.873 23.6235 123.401 24.1515 124.138 24.4462C124.555 24.5935 125.218 24.6918 126.127 24.7409C126.667 24.7654 127.428 24.7777 128.411 24.7777H129.589C130.596 24.7777 131.357 24.7654 131.873 24.7409C132.806 24.6918 133.469 24.5935 133.862 24.4462C134.624 24.127 135.152 23.599 135.446 22.8623Z" fill="#CCCCCC"></path>
<path d="M109.5 18C109.5 27.665 101.665 35.5 92 35.5C82.335 35.5 74.5 27.665 74.5 18C74.5 8.33502 82.335 0.5 92 0.5C101.665 0.5 109.5 8.33502 109.5 18Z" stroke="#CCCCCC"></path>
<path d="M98.8743 18.1481L98.8795 18.1401L98.8843 18.132C99.3802 17.3045 99.8062 16.5757 100.162 15.946C100.647 15.0868 100.97 14.4007 101.062 13.9338C101.144 13.6069 101.16 13.216 100.917 12.9011C100.67 12.5802 100.279 12.5 99.9386 12.5H97.8551C97.5563 12.5 97.2699 12.5764 97.0239 12.754C96.7857 12.926 96.6215 13.1669 96.513 13.4393L96.1669 14.1745L96.1637 14.1813L96.1607 14.1882C95.8845 14.8237 95.5979 15.4078 95.3014 15.941C94.8659 16.6951 94.4365 17.3172 94.0145 17.8126C93.8057 18.0565 93.6666 18.1855 93.5895 18.2406C93.5885 18.2208 93.588 18.199 93.588 18.175V13.825C93.588 13.5082 93.5499 13.1673 93.3819 12.9123C93.1718 12.5937 92.8272 12.5 92.523 12.5H89.239C88.9657 12.5 88.7205 12.6018 88.525 12.7864C88.3257 12.9746 88.2093 13.2222 88.2093 13.5063C88.2093 13.8197 88.3838 14.1086 88.5614 14.3377C88.7088 14.5278 88.7982 14.6812 88.8459 14.7996L88.8512 14.8127L88.8572 14.8255C88.9648 15.054 89.0352 15.3349 89.0568 15.6777V18.925C89.0568 19.0114 89.0545 19.0853 89.0505 19.1476C88.9275 19.0421 88.7695 18.8713 88.5757 18.6198C88.1793 18.1054 87.7726 17.425 87.3584 16.5696L87.3584 16.5696L87.3564 16.5655C86.8973 15.6391 86.507 14.6888 86.1854 13.7143C86.0851 13.3708 85.9441 13.0445 85.7196 12.8278C85.4628 12.5798 85.1214 12.5 84.7897 12.5H82.7062C82.4057 12.5 82.0869 12.5667 81.8415 12.7882C81.5864 13.0185 81.5 13.334 81.5 13.6375C81.5 13.9605 81.5999 14.4563 81.7637 15.0775L81.7678 15.0931L81.773 15.1085C82.0391 15.905 82.388 16.7602 82.818 17.6736C83.3716 18.8747 84.0558 20.0599 84.8693 21.2294C85.7493 22.5776 86.7869 23.6316 87.9869 24.3751C89.18 25.1141 90.3882 25.5 91.6049 25.5C91.9395 25.5 92.2359 25.4805 92.4866 25.4361C92.7292 25.3931 92.9718 25.3199 93.165 25.1831L93.1718 25.1783L93.1783 25.1734C93.5276 24.9084 93.6137 24.4999 93.588 24.1194V23.1625C93.588 22.5538 93.6006 22.202 93.6189 22.0667L93.6233 22.0335V22C93.6233 21.9605 93.6247 21.9275 93.6267 21.9004C93.6348 21.9001 93.6436 21.9 93.653 21.9C93.7202 21.9 93.9004 21.9456 94.227 22.1689C94.5365 22.3806 94.9189 22.7108 95.3768 23.1724C95.6494 23.4622 95.9648 23.8213 96.3235 24.2515C96.5094 24.4743 96.6709 24.6592 96.807 24.8037C96.9306 24.935 97.0519 25.0533 97.1616 25.1339C97.4543 25.3711 97.7961 25.5 98.173 25.5H100.256C100.633 25.5 101.01 25.3886 101.265 25.0678C101.53 24.7362 101.538 24.3227 101.449 23.9479L101.446 23.9327L101.441 23.9177C101.308 23.4776 100.969 22.9241 100.489 22.2818C99.9997 21.6274 99.3276 20.8349 98.4775 19.9069L98.1701 19.5441C98.1186 19.4797 98.0912 19.4339 98.078 19.4058C98.078 19.4057 98.0779 19.4056 98.0779 19.4056C98.0805 19.3976 98.0841 19.3874 98.0893 19.3746C98.1086 19.3268 98.1419 19.2606 98.1951 19.1741C98.2032 19.1633 98.2086 19.1555 98.2098 19.1539C98.222 19.1368 98.2366 19.1156 98.2528 19.0918C98.2856 19.0438 98.3304 18.9768 98.3867 18.8918C98.4996 18.7215 98.6622 18.4733 98.8743 18.1481Z" stroke="#CCCCCC"></path>
<path d="M72.5 18C72.5 27.665 64.665 35.5 55 35.5C45.335 35.5 37.5 27.665 37.5 18C37.5 8.33502 45.335 0.5 55 0.5C64.665 0.5 72.5 8.33502 72.5 18Z" stroke="#CCCCCC"></path>
<path d="M54.3167 15.4858C53.27 15.3688 52.278 15.0691 51.3377 14.5864C50.2228 14.0142 49.2839 13.2469 48.5162 12.2824L48.0672 11.7182L47.6963 12.3365C47.3401 12.9302 47.1562 13.5653 47.1562 14.2344C47.1562 14.8363 47.2877 15.401 47.5532 15.9208L47.1562 15.6863V16.5625V16.625C47.1562 17.5144 47.4483 18.3142 48.0211 19.0063C48.1245 19.1312 48.2329 19.2482 48.3463 19.3571L48.1021 19.3327L48.3366 20.0598C48.5769 20.8044 49.0178 21.4242 49.6472 21.9111C49.9257 22.1265 50.2239 22.295 50.5402 22.4168C49.6924 22.8481 48.7747 23.0625 47.7812 23.0625C47.5009 23.0625 47.256 23.0525 47.0453 23.0333L46.7293 23.9517C48.332 24.9835 50.1033 25.5 52.0312 25.5C54.0368 25.5 55.8316 24.9864 57.3987 23.9497C58.8274 23.0259 59.9375 21.7824 60.7258 20.2288C61.4895 18.766 61.875 17.24 61.875 15.6562C61.875 15.5948 61.874 15.5338 61.8715 15.4743C62.464 14.9997 62.9778 14.446 63.412 13.8145L64.3978 12.3806L62.8012 13.0725C62.7795 13.0819 62.7578 13.0911 62.7361 13.1003C62.8573 12.883 62.9581 12.6509 63.0381 12.4043L63.4411 11.1617L62.3114 11.8176C61.7859 12.1228 61.2225 12.3462 60.6195 12.4877C60.3144 12.2202 59.9741 11.9999 59.6002 11.8273C59.1236 11.6073 58.6088 11.5 58.0625 11.5C57.3914 11.5 56.7627 11.669 56.1856 12.0056C55.6085 12.3422 55.1504 12.8072 54.8159 13.3926C54.4814 13.9779 54.3125 14.6102 54.3125 15.2812C54.3125 15.3495 54.3139 15.4177 54.3167 15.4858Z" stroke="#CCCCCC"></path>
<path d="M35.5 18C35.5 27.665 27.665 35.5 18 35.5C8.33502 35.5 0.5 27.665 0.5 18C0.5 8.33502 8.33502 0.5 18 0.5C27.665 0.5 35.5 8.33502 35.5 18Z" stroke="#CCCCCC"></path>
<path d="M15.125 27V27.5H15.625H18.8295H19.3295V27V19.002H21.3182H21.7613L21.8146 18.5621L22.2236 15.1851L22.2915 14.625H21.7273H19.3295V12.7871C19.3295 12.2824 19.417 12.019 19.5022 11.8998C19.5897 11.789 19.8127 11.6543 20.3636 11.6543H22H22.5V11.1543V8.14844V7.72261L22.0796 7.65482C21.4292 7.54993 20.6043 7.5 19.6136 7.5C18.2904 7.5 17.185 7.93352 16.3504 8.8278C15.5118 9.72635 15.125 10.9583 15.125 12.4531V14.625H13H12.5V15.125V18.502V19.002H13H15.125V27Z" stroke="#CCCCCC"></path>
</svg>
