<svg width="144" height="36" fill="none" xmlns="http://www.w3.org/2000/svg"><path d="M143.5 18c0 9.665-7.835 17.5-17.5 17.5s-17.5-7.835-17.5-17.5S116.335.5 126 .5s17.5 7.835 17.5 17.5Z" stroke="#CCC"/><path fill-rule="evenodd" clip-rule="evenodd" d="M126 13.893c.738 0 1.423.184 2.054.553a4.118 4.118 0 0 1 1.5 1.5c.369.631.553 1.316.553 2.054 0 .738-.184 1.423-.553 2.053a4.118 4.118 0 0 1-1.5 1.5 3.998 3.998 0 0 1-2.054.554 3.998 3.998 0 0 1-2.054-.553 4.118 4.118 0 0 1-1.5-1.5 3.996 3.996 0 0 1-.553-2.054c0-.738.184-1.423.553-2.054a4.118 4.118 0 0 1 1.5-1.5 3.998 3.998 0 0 1 2.054-.553Zm0 6.907c.771 0 1.431-.274 1.978-.822A2.695 2.695 0 0 0 128.8 18c0-.771-.274-1.43-.822-1.978A2.696 2.696 0 0 0 126 15.2c-.771 0-1.431.274-1.978.822A2.695 2.695 0 0 0 123.2 18c0 .771.274 1.43.822 1.978A2.696 2.696 0 0 0 126 20.8Zm5.25-7.086a1.112 1.112 0 0 1-.304.679.868.868 0 0 1-.66.286.929.929 0 0 1-.679-.286.93.93 0 0 1-.286-.679.93.93 0 0 1 .286-.678.929.929 0 0 1 .679-.286c.262 0 .488.095.678.286.191.19.286.416.286.678Zm2.714.965c.024.666.036 1.773.036 3.321 0 1.548-.018 2.66-.054 3.34-.035.678-.136 1.267-.303 1.767a4.17 4.17 0 0 1-2.536 2.536c-.5.166-1.089.268-1.768.303-.678.036-1.791.054-3.339.054s-2.661-.018-3.339-.054c-.679-.035-1.268-.148-1.768-.339a3.812 3.812 0 0 1-1.554-.946 4.165 4.165 0 0 1-.982-1.554c-.167-.5-.268-1.09-.303-1.768-.036-.678-.054-1.791-.054-3.339s.018-2.66.054-3.34c.035-.678.136-1.267.303-1.767a4.17 4.17 0 0 1 2.536-2.536c.5-.167 1.089-.268 1.768-.303.678-.036 1.791-.054 3.339-.054s2.661.018 3.339.054c.679.035 1.268.136 1.768.303a4.17 4.17 0 0 1 2.536 2.536c.167.5.274 1.095.321 1.786Zm-1.518 8.183c.148-.417.246-1.08.295-1.989.025-.54.037-1.301.037-2.284v-1.178c0-1.007-.012-1.769-.037-2.284-.049-.933-.147-1.597-.295-1.99a2.655 2.655 0 0 0-1.584-1.583c-.393-.148-1.056-.246-1.989-.295a53.66 53.66 0 0 0-2.284-.037h-1.178c-.983 0-1.744.012-2.284.037-.909.05-1.572.147-1.989.295a2.655 2.655 0 0 0-1.584 1.584c-.148.393-.246 1.056-.295 1.989-.024.54-.037 1.301-.037 2.284v1.178c0 .983.013 1.744.037 2.284.049.909.147 1.572.295 1.99.319.76.847 1.288 1.584 1.583.417.147 1.08.246 1.989.295.54.024 1.301.037 2.284.037h1.178c1.007 0 1.768-.013 2.284-.037.933-.05 1.596-.148 1.989-.295.762-.319 1.29-.847 1.584-1.584Z" fill="#CCC"/><path d="M107.5 18c0 9.665-7.835 17.5-17.5 17.5S72.5 27.665 72.5 18 80.335.5 90 .5s17.5 7.835 17.5 17.5Z" stroke="#CCC"/><path d="m96.874 18.148.005-.008.005-.008c.496-.828.922-1.556 1.278-2.186.485-.86.808-1.545.9-2.012.082-.327.098-.718-.145-1.033-.247-.32-.638-.401-.978-.401h-2.084c-.299 0-.585.076-.831.254a1.516 1.516 0 0 0-.511.685l-.346.736-.003.006-.003.007c-.276.636-.563 1.22-.86 1.753-.435.754-.865 1.376-1.287 1.872-.208.244-.347.373-.424.428a1.307 1.307 0 0 1-.002-.066v-4.35c0-.317-.038-.658-.206-.913-.21-.318-.555-.412-.859-.412h-3.284c-.273 0-.519.102-.714.286a.973.973 0 0 0-.316.72c0 .314.175.603.352.832.148.19.237.343.285.462l.005.013.006.012c.108.229.178.51.2.853v3.247c0 .086-.002.16-.007.223a3.64 3.64 0 0 1-.474-.528c-.397-.515-.803-1.195-1.218-2.05l-.002-.005c-.459-.926-.849-1.876-1.17-2.85-.1-.344-.242-.67-.466-.887-.257-.248-.599-.328-.93-.328h-2.084c-.3 0-.62.067-.865.288-.255.23-.341.546-.341.85 0 .322.1.818.264 1.44l.004.015.005.015c.266.797.615 1.652 1.045 2.566a23.353 23.353 0 0 0 2.051 3.555c.88 1.349 1.918 2.403 3.118 3.146 1.193.74 2.401 1.125 3.618 1.125.334 0 .63-.02.882-.064.242-.043.485-.116.678-.253l.007-.005.006-.005c.35-.265.436-.673.41-1.054v-.956c0-.61.013-.961.03-1.096l.005-.034V22c0-.04.002-.073.004-.1a.72.72 0 0 1 .026 0c.067 0 .247.046.574.269.31.212.692.542 1.15 1.003.272.29.588.65.947 1.08.185.222.347.407.483.552.124.131.245.25.355.33a1.58 1.58 0 0 0 1.011.366h2.083c.377 0 .754-.111 1.01-.432.264-.332.271-.745.183-1.12l-.003-.015-.005-.015c-.133-.44-.472-.994-.952-1.636-.49-.655-1.161-1.447-2.011-2.375l-.308-.363a.743.743 0 0 1-.092-.138 1.4 1.4 0 0 1 .117-.232l.015-.02.043-.062.134-.2c.113-.17.275-.419.487-.744ZM71.5 18c0 9.665-7.835 17.5-17.5 17.5S36.5 27.665 36.5 18 44.335.5 54 .5 71.5 8.335 71.5 18Z" stroke="#CCC"/><path d="M53.313 15.281c0 .069 0 .137.004.205a8.547 8.547 0 0 1-2.98-.9 8.548 8.548 0 0 1-2.82-2.304l-.45-.564-.37.618a3.641 3.641 0 0 0-.54 1.898c0 .602.13 1.167.396 1.687l-.397-.235V16.625c0 .89.292 1.69.865 2.381.103.125.212.242.325.351l-.244-.024.235.727c.24.744.68 1.364 1.31 1.851.279.215.577.384.893.506a5.99 5.99 0 0 1-2.759.645c-.28 0-.525-.01-.736-.029l-.316.919c1.603 1.031 3.374 1.548 5.302 1.548 2.006 0 3.8-.514 5.368-1.55 1.428-.924 2.538-2.168 3.327-3.721.764-1.463 1.149-2.99 1.149-4.573a4.35 4.35 0 0 0-.004-.182 7.715 7.715 0 0 0 1.541-1.66l.986-1.433-1.597.691c-.022.01-.043.02-.065.028.121-.217.222-.45.302-.696l.403-1.242-1.13.656a6.141 6.141 0 0 1-1.691.67 4.222 4.222 0 0 0-1.02-.66 3.63 3.63 0 0 0-1.538-.328c-.67 0-1.3.169-1.876.506a3.71 3.71 0 0 0-1.37 1.387 3.753 3.753 0 0 0-.504 1.888ZM35.5 18c0 9.665-7.835 17.5-17.5 17.5S.5 27.665.5 18 8.335.5 18 .5 35.5 8.335 35.5 18Z" stroke="#CCC"/><path d="M15.125 27v.5H19.329V19.002h2.432l.054-.44.409-3.377.067-.56H19.33v-1.838c0-.505.088-.768.173-.887.088-.111.31-.246.862-.246H22.5V7.723l-.42-.068c-.65-.105-1.476-.155-2.466-.155-1.324 0-2.429.434-3.264 1.328-.838.898-1.225 2.13-1.225 3.625v2.172H12.5v4.377h2.625V27Z" stroke="#CCC"/></svg>